<mxfile host="app.diagrams.net" agent="Mozilla/5.0 (Windows NT 10.0; Win64; x64) AppleWebKit/537.36 (KHTML, like Gecko) Chrome/128.0.0.0 Safari/537.36 Edg/128.0.0.0" version="24.7.12">
  <diagram name="Page-1" id="6ukXYPLJFrQoB1AJJv6b">
    <mxGraphModel dx="1641" dy="877" grid="1" gridSize="10" guides="1" tooltips="1" connect="1" arrows="1" fold="1" page="1" pageScale="1" pageWidth="850" pageHeight="1100" math="0" shadow="0">
      <root>
        <mxCell id="0" />
        <mxCell id="1" parent="0" />
        <mxCell id="8xl_JkXHUE990gDZxPh6-12" style="rounded=0;orthogonalLoop=1;jettySize=auto;html=1;" edge="1" parent="1" source="8xl_JkXHUE990gDZxPh6-5" target="8xl_JkXHUE990gDZxPh6-9">
          <mxGeometry relative="1" as="geometry" />
        </mxCell>
        <mxCell id="8xl_JkXHUE990gDZxPh6-16" style="edgeStyle=orthogonalEdgeStyle;rounded=0;orthogonalLoop=1;jettySize=auto;html=1;" edge="1" parent="1" source="8xl_JkXHUE990gDZxPh6-5" target="8xl_JkXHUE990gDZxPh6-15">
          <mxGeometry relative="1" as="geometry" />
        </mxCell>
        <mxCell id="8xl_JkXHUE990gDZxPh6-5" value="Command.API" style="image;aspect=fixed;perimeter=ellipsePerimeter;html=1;align=center;fontSize=12;verticalAlign=top;fontColor=#364149;shadow=0;dashed=0;image=img/lib/cumulus/container.svg;" vertex="1" parent="1">
          <mxGeometry x="255" y="340" width="90" height="80" as="geometry" />
        </mxCell>
        <mxCell id="8xl_JkXHUE990gDZxPh6-19" style="rounded=0;orthogonalLoop=1;jettySize=auto;html=1;" edge="1" parent="1" source="8xl_JkXHUE990gDZxPh6-6" target="8xl_JkXHUE990gDZxPh6-9">
          <mxGeometry relative="1" as="geometry" />
        </mxCell>
        <mxCell id="8xl_JkXHUE990gDZxPh6-6" value="Query.API" style="image;aspect=fixed;perimeter=ellipsePerimeter;html=1;align=center;fontSize=12;verticalAlign=top;fontColor=#364149;shadow=0;dashed=0;image=img/lib/cumulus/container.svg;" vertex="1" parent="1">
          <mxGeometry x="255" y="640" width="90" height="80" as="geometry" />
        </mxCell>
        <mxCell id="8xl_JkXHUE990gDZxPh6-8" value="" style="shape=image;verticalLabelPosition=bottom;labelBackgroundColor=default;verticalAlign=top;aspect=fixed;imageAspect=0;image=data:image/png,iVBORw0KGgoAAAANSUhEUgAAALEAAABBCAYAAACeu0XcAAAAAXNSR0IArs4c6QAAAARnQU1BAACxjwv8YQUAAAAJcEhZcwAADsMAAA7DAcdvqGQAAC4bSURBVHhe7X0JfJzFef6zu1qt7tOWLN83vjDGNpjbEJIGEwgkgMndlKRJSlJKSq7+Gq4cpUn/hUDzbwslNAn5GxNIw1EIiQ0BDD4wtsHGp2xLvnRY1n2uVtr9P8/77UifZFk2tmgo6MGj75p5552ZZ955Z775lkBHtDOBYQzjfzGCyeMwhvG/Fn8SEsfjcSQSpzYAKP2pyhjGewP/4+6ECBwIBCyAORsZdXKCCAZ7+50jsckaxvsW/zMkTpLtqIzsBv+Qg+Jh0M6Ddt6DhKw2yZ8I8Glfsoq8w0QexhCQ2CX3kUjWlaTquaNrka0f0YK8DPBPsIe4pKmduHhMY/+U3iNsgqSO657L1odhIr8/cZIk9kjliOfBR6AkiXV0xHIWU/HlEgR53yOw4sWBWD3QXc7TTprdLsZLuhzBTCClxAtBz5cWieWWxHXSB8qrN89hvD/wtkncS0ZHlOMnF6lculAoiBDJG6D1RVcD0Lkfieh+oH0f4p3rSOR2MpREFhFloUP5QOosBNLnAZEcBFKnk9DZoiri3XF02yTRRBPKx+dzD+N9gbdFYm8411mvFe4l9dFwZPITOCUlhEB3JxKxSiQaVyPR9AQS7a+S0E1IiMCS6+ZuSqYQDAPhIiNwIO8LCGTPRyAyjvcjZo27ummdSeYgO4fLa5jE7x+cMIn7k8OtMgh96MJo9DS8ozHQSyPyisSBeAzxpm2IH/4OEq2vMFKbR9pAiCTMtvi9kKBu5h2lmxHVKUEbnHk1gsV/i0DOIhrrMN2LBGJdci+6zVUZJvL7CydE4h5SeBegB2tkkVugo7kG/SBidXeLgAnG8yxworsZ3Yd/g0TNDxjhgPnEgUAKYydZz8C+QZmSwHtMaznLrbBrXUTpMvM6ZTKCI76GwMjPIhDOZH5xdHZ6+fnJO0zk9z6OS2JHYMERJMQQJCltUsZ/8aZWdFc3Am10E8IhpIzN53wsEwmS1IinaLHDiNf+F+LVP6aMQwwh3nTkF9GSEQeAp4KXt9Fa1+pJKRMQyP8cAkV/TSJnWKfpokV2eg4T+P2BQUnsCGzksfOkVQ3Rr+UxVlqF2PpydJfWkMgdQIzjPV2GYFYaQhPykXrJdIQmjiDhmpFoWInuqjsR6NpGzyGVkjwCezw7PtkcMXtIbIF/wjMRKPwS3Ysv282uri6b7JnMJImHqfzexnFJ3EtgcSKAsCywCLxpH6LPbUNscwUS9SSwxVUskpPniXAC6V++AJFLTuP9PSTwv5HI/8Y5WobxT4Q7OUtJ2aaP8iFZE5z0RRYiNJodJPd8zxp3+1YsmMcwid/bcOP5gDCS+SguKxzkddfBWnQ88QZir5QBR9rpn9IyR8JeSKOPy3iJ9hgnYp5FTNCVQHQH71NeIJX3TpbAgnMTqIi5JJ1A52a6Kr+gYlFzcczNSSpuZz2MHsZ7EYOSuAfiC9lAbiIejSH6PC3wuv3mlwYyU0liTrSMoIok0nYjOCkPofH59hzdDSRYJTknSnWfAoEdXHoppiI0ItGyEvG2nXzCvKWKF+FdQWC/Djp3weHdoOM7iYHKPJQ4LomZtf2nV8MKiZYoYs/v4QPSJKzdDlIuGZnnBhI9mJ1Oy0wCx6NIdJLwsVKSl5bTZmSnXpgea2xFSEOiqw7xxkfoYTQjyM5inYpQvFPvNKcG13jWkDq6c9/99ypcOV3Q0uxQ44QtsUKC5OyuqEW8oZ2+hbc0Zv+RI6ag4vEi3hFDICMNgTBJ21lLUtOdMKTZWm6vnTxFSEyAmQZYMUG6L81baeijvE6hGipaL1H+lHBr1zpqUqwQ0uRYdWUvaU6sGf43wBHVT1bvXt+2GEoyv63aS+iFQmMb3QWSNEzy0uJJMQXxyYTJD6aFDo7JIZFTGbeB6ep7ctJbtaGCcZhEDZDIQe2raHuB+R2govST30VQgznSirAW7O1lip0PZYMOJRwZXRv7g9PZXTv4yyiEwylIT4sgIz2CCEdm1YPSuudDgbcnSbFJUHR0IdGsiRsJJH+YAfJ3ZVlI9GB2GKHJ9IdzInQjaIk1sTPuDrVVVCdSReo8zJM25nWEtd/pZfcugV786MXQ1q1v4dvf/hY+9KEP4o7bbkdzU7Ot9nhlGOq6GWJQv7itw3fZCpDDQHo78usFV3X1YWzc9AZWr16DPXv2cBTSyzHP+A0VBiTxQBnYHfaq4ChO2GYVA4URciWGeG0rA61za8wstXyKQGYEoRKSOJ0+cRf959hOJ2HIwfrQ32QguknkRJddvhuIbFWpP1S0qakJb775Jv74wgvYsmULBy03yX1n6uZUId1cCJGQqalhRFJT7ahRxB/Hob9V3rRxI+6//99xxx2349Hlyz1ZtMbvKImdcB3cub0eVmBBQsX5SFu6EOmfmo/wkhkILpqAwMyRSIzK5JSNQ08DSUT6BDPTPb+56yCJvU8lklSTN9Tw1SGz8A3NfR78qdBbZn+Du8b08M7Uy1BAmmnoP3LkCF5g5/vZzx7Es88+a8/85RkIelJVVYn169dj5cqV1oF1d7A0J4M+JPb3DncuH9Z2nnGiFI0l0MBJU+K8aUi7eh4yPrMI6Z9fhMinFyBy1WykXjwVKWeOQXBmMa0wXQlOshLdDZTSyiDF35nG8qRSvp30Fmmg8vwpITL0NB9Phrgthxyqs4T8V+q5f98+LH/0UXzv+9/H/f9+v7kLzqIOVrf5BQWYMnky5syZgwkTJvLO4PFPBj0t7gSrXnWuCnaTj2g8gPLGTrx8sBVP7mnCyoNt2HwkhgMpEdSPL0LsrKlIvWohsm6+FOm3XYbUz52FQGEG51f0h7uaPam2WiAMZcupQuzAf7TAgUxa/xwew3riPdd/iuTCuwjvLm36wuNAcuLO69bWVtTSGldWVKCsbG/PKNLfqvqvlfa0GTOwdOlS3HTTTbjiyitMljrAUFpjY5Y1MmFi7dwb6sIMUU7e1le24a4Ntfj0y4fxpXV1uHplFf5yZQV+uPYw/nNrPVaWt2B3bRQN9Pfb80miKSWg80Rt6Vpog7uRWMKHDtK558OORDf/sVIzzgXSZyIRzOBNvYDxLJ81iGbDPMqyuPK+HajilW6wIPjP3w6Uxk2ITiQvBUFxB8OJylLoH1ewI/+lmi/M0ZUQAfuvLvjT6JmCXv/POO00XHfddfjCF7+IxRct5qTQK19/EiutK4uTNVhQXKev3iJLKxOq87gUpPtgm3yYz5M7G3Hb+losP9SORGoIJVlhjMoOY2cigIerO3HHlib85atHsPT5Kvz5igp8bVU1lm2rR31HFw3jFATSplAqSaXJ1hAh4S1Ik6Y8JmIMWfTBr0Vo2m8RTBvL4S9gHTASTkU4HDaXyCpIpE5Wvgo/GPwV5aBZeSzW1TNDV4Mo6DoWi9k9B1fBJwrVv7WB8mVwso8O3gqB00FkcXoq7UB669yfxi/P6e4FnXdZ/qonyVJ8d1QQdN3JSX1nZ6eFaDLonuTxcY8OHR1RNDW3cFLbjNa2NpPhdHaydK6joOfSxdP16HLHYp3JPLyRQgjauwIGE8KgbZaptgwCPLa9CfeXtmBHWzdyIiGksf21bzcRiCOLxChMDWJkBsmSHkIVk7/S0IWnD7bjH0jsrdXt6OxipWacj0TaJdRO2SXJZG/tTg6WXg2uzfJxEjig7Zg3IjjxewiGM3GgpgE/fmoNHl+9FTX1zbbfI+xfj2VQ0ftbgoHgiKV0ClrnzMxIQ0Z6mq19uqDrzIx0G70Uz1Wwa5gTgeJLzzTJjPTKHihY/gxhWkc1riuL8nN5+vXWaoLS9NfbyZLuClmcjKt8kTAn5JQjA5CVmWlzooyMTGTy3MmOpKYk60PpMpIhHWm8J3VU3xaP15KRnZXJvNJ72kFHp6vOHZSnZB6tq6d/ZkaGHVMZz5W7ZxebExgK0gqnBLGvLoqvv1aLtXWdZp21PNzTJEwbSIhIAiuOf0UN68E8ryXpvzEjC1+YnYdJ6c2I1/wMqPkhAiFO9KBC9q3sE4PS6CgXIUb3gZY9PI8E/hSCBR9DV+p47Ks8gu+t2Iw1e6uQSUJdNLUE1yyYgsUzx1vFxbpEfG8oc2UZKH+nm4PIqclNjBZgx44d2MdJjnxEKaQGiKSlc9IyHtOnTSO50tHNkUL5OYhoIt2aNWvwvTvvxB/+8AdcdfXV+PkvfoHc7Gy0d3TYcK111G1bt6G+ocEav78eqnHNUzKzsjBh/HjMPX0u83G79vrGFaSbRiV9UbOrtBR79+xFY2Ojt7QnWXyupbM0EiTMUUsy8nJzMZ0uQF5eroqHXbt2oo0WdPObm7F8+XKsWPEHTJg4EcuWPWKyXTllHdNJvvHUa8SIEWbR1Slra2uT9dWCktGjMW3qVHTymaD8rP4ZVL+q5xgt+ltvvYWKikq0tXuWW3G0tJfGus3KzMK4ceMwqqTE5mvK30gsYaoCKWVfYLCA922sxU/3NKOR+aXZxh0P/RvdVZ7uqz9JmSPROOZmBHH7gnxcMiYDoZY/IF7xfQSi6xDgZJBjFdMxtjcEMDcToL8DwJPvZcM4dEv0iVMicr5H4PwlaEMJNpdX4qertuHZPYc5AnhDYCGtxeJJxfj8hbPwQUdkVqAnsRf+MrnyCLqviu1mA73++uv4/R9+T5LRwtfUoCMaNaVEhJSUMApHFGLeGWdgyZIlmDVrthHD29csEsdJ4sgxSdzW3mHWZvnyR/H4bx7HvvJyk+m1Si+kpYb5CC31qFGjcO455+Caa65BUVGxPXRff1tbMJ6KJUK89OKL2LBhIw4dOoR2EsPFk5uleLJ+oVCKlX3K1Cn4xCc+iQ9ccjHL2GkvZ0RCTer27t2LyspKZLETLV682PJx9SWyjRkz1iZvV330o16Z2HGf+91zePLJJ1G+r9zS/N13vmPGxD+CSIc2GoWtrFt1kk2bNqGBHVmuinRVtBAJK+sbiaShoLAAt912OyZPnqQmQOi7t956h0lKNoh6bVu0G3dtaUB5exwpLKjjsL+xHXTPCsNzFUiU1Au8mtZuTM1KwZRcDie0VHG9UYs2kLdVtIZ+/1iWVek9Za01euBVkH4ewLvPdNI6/SIECm4ggS9HQ6wQq3cdxINrtuPR7RX2NYmGw5RwCG2xOCoaWtHU0oH5YwuRy+FOEt2I4cozULkEq9y2Vrzyyirc/8ADePTRR1FeVmbWduTIkcih1ZK1OXKkBqtXr8a2bVtxmAQvLCzE2HFjrQN4ewY0TKbg4MGDeOmll8zizuCs/eqPfYzDb8QsvOTs2LnTCNxJn1BWTc/UGXoC8+2g1RaZNm7YgO3bt9MCduOMefM43GdY/QsqT1dXDG9teQv3338/lj3yCNauXWMvWzI5rGez40hejHFi9GOj9FsPHDyAXcxfnfzMM8/EnNmzTY+f3HO36exGH+Uhn7W8fB9KS3ehdPduWvg92M1jZ2cUM2fMxMKFC3vKtOqVV/DEE7/FurVrMZIW+pprrjUdzYJST9VxOy396jWrqesDeOyxXxuJq6qqTEfTNV0T9QRaW1px+HC11fV1116H0WNGmwzvtYvBa0gZj5qmTlS005rxlizrCSFZgTqo4eQ/R+kTsz8gEBlP0l1Pd4IWo+0JoH0vDep+WtQmPlQ+suFHIynSgy60AT79PGDE3yCYcx5q28NYtX0ffrluJ54uO4xUDsEaNSwdQyotcXNnF/5YWoGnN+7GX146zxtpGMHf4A66p2tXwWqs7du2495776P1/D0mTpyE888/z2bZ06ZPZyVH2LBt2LZ9Gy3O70iUtfg1iZ5CqyZLqbVRkcyUGQRSQR3r7LPPRsmoEhtGZR2djg7StJKN++qrr2IFrbnI/C//ch8uu2wJ5i+YT0JwptDtGaPaIw146D8fwq8eftjIsIDEkvy5p5/eMxTX19cjSospHcvL92IvO6ieTZky2epQca688kqMphugfMuYXzk7mYi1ZMlHmBctJeNZndGyTqSbMWvWTCuLact/mfSVtaohWXKZ/FD5NGfZys7/8C8fxmO/ftRGmQULFlCHKTh70SJMYp2rg0Y5KjQ01NlLF708KSgooHivrX0k9qo6Rq0OtXShnVZM7oVrZO/vwPBXdhcJkGBFLqEbcdWkbIzNDqGRZOgO5CF/xHWUdz1QvxJo+i0Sba/ZG71AooX3ZWWpjlwMU05EU/68ti84MtgZzkJi1I8RypqOeo4Sv39zN362ejtWVTQgLSOCCCtEE08m8gqjSiJpG7riWLZhD65bNANFeZnsNGxsk++R1g/dE4llRappVfWm6bnnfoecnBzc8MUv4rOf/jTGjh0j0T248MILaBmW4qa/+WvGfQ6rVr2MmTNn0irNMPkaOo/DY8aJY9zYcRg/bnzyjkvg18/T94Lzz6cOY8010bC7YcPrmDxlEvLz8uy5goZ9veaV5b744otxK4ffRSSxJ7evTCZInifBwskV0uhx8803m7z1r2/AfffdayRW3suXL/M0VD1aIg+qP5VFaQT9Noj9ahPlyW92UDwRWKPByhUrrI5F8unTT8P3vv8DXLz4Iht5+ggXkqrqoLmAOk+vCeRd5avG0dqwyGzlSz4+FqSMhwA6maatM45PjUnH7YtGYE5xGvbTof/1vj34t91bUdXcwCkZC1jwQaRM+lcEJzwMFH6T3D0T8Zh6c5SF9XxNfQUti+IROBuBjCuQmPgIQjkc5uhP/2rVW/jHFW/ilcpGpGdytsq4qnhvC6ZXGGkmV0g7QrdW1GHjvmrqx4r0NZojraCKt8rVRI7y9pbtNT9YluzKKz+KP//sZ+j3jUGUMto5BGtC5h2jnMwU2FrobPrDauhNmzaihlYjkhpOynf1NDCUr4Zg+dpOpj+4+xruJ0yYgCWXXWYWUzq/tfWt5ISNZWF9tbY0c5gvRV1dncn91Kc/ww51mo0srW0dR+UhK9cnaE8MddaSmZ6rXjva2y04XUUPjbiK60+rNJ6/a60wIFydp7CT6OXJ3r1l1hk10umlyOVLLuOzsMnz17HOe/JhPZhxII4ax5VxCjXwrLB3TxioCaSMouhZK61dCgt109RM/P05I209eW99He7buwO37dmGe0jkKzetxXc2rsWWw4fQEetEKHMawiVfQWjyw0iM+SVnkFcgSOsb72pnaCaxWyi82H4wBRPuRSgtB90c/r71+Gr886rtKGvt5FATgaaiqhQjPSGdPL1ISisHrSEta2lFLTpIQA27zlLo6NJJhsqkNXL5f1vf2orX1q2z4eyGG25Afn6+kUhx7JeMGM8dVQcXXnABJkyaYJOQQ2ycjZxMeXIHJ7AgmVaf1KdXdvK3OnztIKKLKLJaxXQ9FP/FP/4RNYcPMz07C/MSSbUqIAQpo6ioiH685zNbHMLLw8tHMlx9HAv9Hx8n+rHBdMrLOjb1eePNN1FWXmbuhlZ4PnLFRyyaXByvLrw6cJNQB0ufRO9dClRLaCI3hhOyrLCGZvW4gRvAKpxH9YXWWAIlqUHcPDMXN84rxIj0FGyuqcJdJO9va6sR1bJdOBVlJO7yusP47LY38PXNr+Gx/XtxoIPDQdo4hAv/DCkTfgSM/R0CuX/BWh5Lp3Y2AiO/jGDJV3mdhZqaOtzw6Ct4fPM+ugjdCEdSTAfBX8AeqMKSp5rwHWlssyHIazQV1/vPwd+QsmzV1dU2Q9bMXf6eiCNLpwrsH0SscErYgiq8jb7ykdojJmtA3frB08nLX3Urmc7SqIG1xKQVDPnhsmByk7I4SRPU4WRlXWm1piriSp6WFDexM9XUcM7AUUFrsJKlZ5Lv9FeegtND904Uiq8yKuh8UIhmzMvqhHHll7e0tFgZc+hra/Kn1QvJ8evk5PuD7tszi+UD6wbFeakYmaYJkHXsPtClI3CUF/KdT6ff+9XTsvGJaTkozgjhlaoD+OeynVhBR7yFlZHGDPUSJcxjJ4/7SYyn6o7gR2WluH3HZjzI45amKAJpUxHMuwihUTcjOPo+hMb8E4IjPomOxAhs2nMI33z6dTyzsxLNLKTWS3ur6zgVx8fS29aJkxVzPDSzYjXECZoMFhTkm1WwZR6SQUcXRApvk5TqT65IiKTqNHIpc5H6eDpKLwVZnVSS1MmVXyqZ6mztHIU0sdHwu337DlQcqrA0jnAaPaVEOkeO8ePG9bycePhXv8Q99/wEzzzzrK2QaJ1Y+5h7ysGjSCRCOFk6f2fg1b+RkEd1dq2O6FouhOpYvvPbyb8Pia1CmElGJIQPFEXsrRzdYz3RQ8tecdQmHbrFh2fnhfH5Kdn4+ORsFNIPf6HyIO4jKVc21aOZVku+qlMnTMVE6HQq2k5pu6MdeLa2Bv+XFvn/7N2JfyXxXyO528LTSGa6Frl/hsbOIry4dT/+6YXN+M2OSkTZq9wQ6FXHIBUuHZNHzQ+ztc+ZJDHCWIRjo6Ojnf5jq60S5OTksvEPYVfpbpSWltpyUt9Qavf3HzhgQ7nIJCun5SupNtAvJPWHymBkZfmq6Rq89PJLuPfen+D2227Dbbfdilu/eyuPt+FOTuZ++IMf4IEHHrDVCY/E6gCeDJVMR/nuWkPWbF/rr48+uhz3/OQe/OCHPzQZP/7xj/HQQw9xUrjBJoHqdOqI0sHp805CpGUm9G87LG/lJ9dH7eLvSCeiR4q/OVUhWqLR7vurJ2ZhbW0UrzfGOMmjFaUsPVd0R+BzSODPTM7CpeMzEQp34/nqKjxUvhsvtTSaQlotcCpIGeXkcktnw2p/cgcVLiVh9na04VUS/9ysHJxbMAIXFBRhanYemtui2FRejd9sPYhgRhrdHI0Q1FoFTMoaFKYyic8ONW5EDlKZp6VnkAT9J536yxIJtdYqiNAP/Md/qM6POcyqajS876CFdMO0LIpXXlfqY0Odq7GxCa+vX481a9dg0xubsG7NWjRyNFBdys9W58jMzEr6uGn9Gpl5mII8Y94FBYX4qxtvtFfTmzdvtnVerdW+smoVYyaQSR95JOUsOucc2yI5deoUzJk9x45ZWdnHdCOHGhoVrE5dWZit8Yw4EQILnolgXJdAFSBJc0alY+mETExNDyFOwnYlhdP9Nb/y3NwwvjYjB5dPykKABF5xuBL30pr+vrHOlqf6E9hB6ulauWg2HSGZc2nt0uhLHmbjP05L/O3SbfhZ2S7sZWfITAujOD8L+ekcsnsFJk+ODcvH/spSAfn0n2eOHYG0VO/NlD06DrTEJ1/zAC2sFuyffOIJPPXkUwxPHhWefupJPLJsmfnBxcXFRrTs7CzLxyPEsTKUu6E6juPll17CXXfdhX9k2Pj6BkybNg0fvuwyXP6Rj+CjV16Jj370Knzyk5+0GfyNN36VhJtqdWmuVbJOdFT3FHkXLliIu+++G7fccguuv/56LFlyOS5avNjIWjhypC2/PfPf/40f/egue5N29z1328sJvbSQOEemdwwmnhl5/yycDMiLZFIepLQqPMYK1Sagz3Gi1kb2PrS7GbvbOMkIkXx8fl52Cn64oAAzRkRolbvwdMUB3EvS7exoRV4kzdyNY/UmN7BaZfORNTD/yWfOocUJMNTRgj1VX4O5TUX47LgCnDVtDD6w4yAeoz+clun5npLv1YEnv28uBJ/rXhc7SoDhginFJPFIRGjJY/q5LQfFkw4a3nzQsO7KkEHf8itf+Qp9yIhZWbt/VIYeZC3b2tuRn1+ARYsW8Q7lS8eknv2h29o0c4Duyv0P3I+X6UZMmjQJS5deT6L+le0TcPDX6c6dO9lZipLX3tDsoHiybgqZGZm49tprcR2DZvx19XXYtWsXtmzeQrelGtu2bcObb7xhvvLyRx6xVY7x4yfgjLmns546evIcaqgMvSqTC8znZPOylusjQOckkW0qYcN+eW4+/mF+Ps6n5Y1zEndpfiqWXVyM02mp6YLTYu7EP+zZhtJoOwpFYM3eKcZTcuCGc9BT18BK40IuLXkVh/IXqyuxmT7zFLoBnz9nOhLRTk7qvCWyCN0CdTSzztRZDaYiKMhHVMG0cSnKhivmJPVrF8yitU9hB00OX4TLuz+BBU140mjNBO3C+htav69//WZ84xu34Jvf/Aa++Y2Bg6zerd/9Lr721RtxxhnzbDJpE64B4L/7Gt0I7ckQFi++GN/61reMwEqvtVjtRWhuabWgdVKVQW8LDWq6nuZLnhAqn7ZItrW12zqrPjEr5gihpUB1kDtuv93eMP7i57/ERRdeZGk06vzxheft/J2EMwZ6ha9VH5176/xqjqPbYzBYbD/ZdK5qMJ9QGfHR+eOz8JMLi/DsJcW4+9wRyMlORUt7K+7cuQX3V5Sjln5NHhtdisSpwNtTwWtMpdFRjaOphV7dvtbShDV0TzLoCswZX4wvLZyEDJK4oaYRR2qaUNvUjuYo/U4mNEIzob3cYGPp3VBbaxQT6T585ZzTMH/6OPP1afo9phPS19/ofmiGn5WdY+fSSUtBtuhPMrSSFLK2gwUtzGvvwYni5ZdeRBUnWNohNnv2LE4ms23ZTn61YCsjbGxN1LSSYPeO09gqm836GV/tqjVudYYWkr+ZQcRW6c+cfyYWnnUWLfsoW1JsbGriXW0G89IZePTzRNB1/3snClfvjsRauhTnBOXr2saFwdBTC35ldK6EEmobOTi1n0BLPL8kA6NzUlDZ3IA7SODlhytwhM/l11ItS3NyReqFyzuLfmJNLIqXa6uxnta4OC8Lt1x+Nh78+Ln4xgfnYumCibh4Qj7GpgbR2tDGCVAbmpqjaIrG0MjJYFtrB+aMyMKNF87E9efSCqeGbTi1Fw/9yurgr6ws+rPajiiIxFVV1T0TNaWRH3us0PPWkDheAzjs2rnL1qa151ZbLUU+l5cfkucmXT2SFYVBLzL8+Vlc6q6j5LhgE0XK17mW7bQCc/rpp9t+BcXvUudLZmvy+E+76hTcPW9PSC8sLwaLPxiSOniWmK4ajYU2OnVTnrZ8qgNp+c/p7eDk674L7n6frizhDu5cvqEUVuQICdMW78K/7tuN/zpSjdruLg7ntLyMa/SVgpbq5KF8pZ7eGmp571C0A2VtzbaqMK2kEEvmTcEXLpyDr3/wTPw9Sf2DKxfhziXz8aVzpuLqaSMxPSOMuXkZ+IszJ+HbH5yHj501HSWcGKoMGllcHi744V1797TBRFv9tFtNE6Cnnn4KzaxgranKKlql+ipUwVW6CKjQX/5g0D5ckbe5udnyUVrlIyOiraBu+JVcrWToudZVBS2L6VpklBvkxQnZBFtWTdeC0puOST0FxZGboa+StRtPctQRRVxfNJPj8pMMewXNo/RSMFLxWukVjomkTBdHk1dtMJIMuTLapqpnqmcde+pXyiTlu7rtqW/764MTLrhzRXZCOthLn6s9jCNaMKewFAaJUlx/2lOB5DlbZnKZR1c8huqWvdjXspo9twrTioHzSNprFk7DlxfPwVcvOR03XTIXt3zgDPztpXPxtcWn4yNnTMKYwhzz71VJguS5wg8EFUHLPhq2J02ejLn0a9vZYL95/HHbkiiCyVKIOLaumgyOMP57x6sPvxbnnHuOrWhov4M23peVlZn7Y3n1BG+ZTVsq9+/fb0dB20W1206b3mXNzKiwjFpZUYObri5Iju9aL1N2l5bitddeMxK5babSzr5HtBw4T8nJsSCoU+vzey1B9sh0gdeu0wwGxRE5p9L6n3baabYz7gDLtGzZMmza9IY96yPbd64O6ogs9O4n9sE9NAKpQpLnWkGopy/8UMV+tNJeygpbXMWzFEOHEGVHaemncHb94aIxKIkEsK36Zayv+CUa2g+gIbofzZ01jNPM/FuRnRFHCQl79uTxmDthlO1W05CpytCuKsHK4iOw6e6De2YTQz6SZeuMdWI9G9iRRta8taXFltIOV1fbq2ntfT3E2f2hioPYV74P+/ftt5ceeXl5ZjWVRrKO2k989cfsNbKy1ZKYtljq5YlIIr21i6uepLY86C/v378Pm7dsxssvr7LfgNBGfVluLYmpo+ltnpb1xo0bb+fPP78Su5mXp9shVFRUmBy93FCQPto0/1+//a39oIvKN3/+Aiy9fmlyUqmdhQl7xa3X6dJNG/vtuzpOLpWX5gqSJd2kp4xdXm6ezR9EOG1O0vq04syePRsf//jHrZ4VFFfuhL760P5kfUWiXwzStVy3urpaHKYbV1lZYWVQG6g86uB5+flWd2Jen62YfrgGdhkKyrRTi9P0vYactUm4DhPjmbIoCqdibJo++YnhSFsZajo2oC66GYlaTuaC+ciJjGMoRnZkJHIjEzGn+EPISSuiFeHkjuSR7pLXn7D9rwX/Pemht176SmHTxk22n3jFihW2l3XipElmNWV9mcgI54inLxSUWOu72saYk5tDHbyhVs+9muxbr9JT1uhsTq60MV3LZ//y059i7bp1tp/A2/TTaT97VV5eZtZaS3jyn7UpSb60toxquUx+vPbhaqP6333n27YyoU36clU0usjdkCVTA8pS79mz2zqhJlfaXK8NOOedd57pqvpwFjMnN9tIOHv2HFrtdfj5z/+Teu4wPTTKtbQ02/kVV1yBL37xCyquldXKnCyrGw390P3zzj8fB0jSAwf2W0d78MEH8cwzz9huvWybXMuH7rK3eyqrRuYH/uNB+5JGK1UDWuL+kDI2LDHInVhWdQBNtG66dstHR1Pi5KEqblfFUf6H84twBS1xNNGCNyufoVtRj4xwIdJTclkYTga66Zt37MSh5k0orVuBvMhUFGSMo6sTsU7nCOwaxYWB4O7rqEaQRS4sLMCFF11Ei1hPK1Flw7U+1ZHFlUXQtkt9jaEthVWVVUYwrcXqe7KLFy+2ddrOzi4jiSyJrKcs+KyZM3HZhy+z4du+sSO5RKIOzQH2llk+kl1auht79+6xofbw4cO2wnDmmfPtbdw1117L0SZkFkuWfir9S+0d1tcV2uD+/371K5sLyMLKMjvrKz0cYdQ5tNX0ggsvtJcoS69baj6yLK3IrrpQ3elnfbV/RPmsY+eSfyyrXlZW7llh6qY9ECUlJbj00g9YB1EnlyXWT3bpzeOsWbM4+lxt8lx7qI1UR9OnT8ekKZPNJdKoIr1UXrk40rmCI4mWILVZSKOPfgZgzOgSI/QJ/Y9nFFQgTa6q2tvw4dc4JEbb7WNMDfsSMFQkliyRuJ49b3QojL+eMAU3TZ1lVvihDZ9BOKRfnqHT35OjlvTkg8XR2HkQ84q+hHPGfYpkHmUWzluMeHvaqbwOSqsNOVG6B9peKVfg4IGDVpGuXtSgo9l4ubSCubn5Nszm5uaaOyFoaBSJGxoabWhUWj2bTH9QxsFWAwg1ujaJ76M7soVug/ZrqGb14e7Y0WNtZBg9psQmnW7CJrLIwmn4Vlx9YCqiyQLbt4AkVktLkxFZ1/Y1BwmqGvH8/klm8UYVFyOLVl9Gye0iM/IyDw+eQVBZKtlZX9+wAfvZybQMqFfguSyPvmbRa2t9MKu1bekhIsrN0Kt7vQqfxufaCyzZgmT2BOahTVN72InL9+2zTiIya6Kp3Xcji0faCJiVmc1J92SrU5X9hElslpgVVxeL4hOvv4K1zY3IELF536u+oYEKpwljLZWfRCt108TpuGHcBOxvfAOPbPkc3YYRzEu5eQX3oOKzAjqrML/or3D2uKV0LYpPicQK/nQqv3JRpXrEUal7Lb2Wn+T/atumjtJJVkZyHBTPJkt0LywdG8c9tybluSYweq7Zv/Lxyun55wq2zMVrWzGiLNtTId0UiVD9Od2tVniuhtZ9EdBcLJ4LSiciKJi+SmtPvDpwMFlJ+TqI6OokqgvpKjnWmamLdPSXS/G9Mksn6sm40kdplJ+Tq+dOTjc7slfP2rtNXRlHz9zkWecUZGksnUkYBK4AiixfWHsiPpSThwwOOV4zMo7FHBpYXqp+5lfEBitipUS721HfVm2TLTWNrK+/8Ar8g1h3J7IihSSC/u9Mnm4nA3+ZXVCFq0PI6mrCpW2O2oyj32PQhnNNzIL6YpjptSdEllFpBNPPHVUGNgD/9H3OoBIZkXiZGkkz+cpHeYT16ztMJwK4JU9JVXwjZzJ46amvEVd6K0+OVdQtlZY3g7p6crNM7xDrWFFMX8lMBsHVg2AyFScpU7L01bN8VslSnagOlJdXLsmxYllZvTJ7+rq6dXLduZ5pvVg1ofJmZCZ1tTpOZ91rH3TSQDCuSzcoib0oPjCRtlFeXjwGBSy8FSwpaKigAqoY2pw/mRO6iWzMzq421LUfIonlaFidEK7wuiBpEp020SvOnoZISpae9hTyZOAa0AXByssGlFhJ7hN4s3/oD+8+Gyt59EM5KJ8+MnivJ/juCYprFikJfzq7ZlA+fmLqkcnyh+QzwV9ef3Bw5z0yed4rxwVZXMVSfO9a9/1ldnL8ebggqYrn0imJheQ9VyaXXhiUxJayBxJKcrEnzMgvxFlZOUjjXX1wKVF6NlSQTOUzPi0DYyLptMRNqG3byUbzvw1joe2o+Bze412Ykn8pRmZOYgfQa8xT16d/BSuIOMcL/vhOjjsq+OP47/vP+8t0wT0fLJyIHH/wp/UHh4GeDSaHKZKhrx69zweW6YL7FOlYwcVzcgYlsUXrIYOshGfyU2nWry8ei/E0+bp2hFEvOhWoIyjPGI9yHfJpiXOTJK7r2MnnGs70W2FdJC0nM3bUh6VAYfoMLBzzKWSE80yO+702FTKp3jDeoxjcEovtPtbLJ7bdbSTFZSXjcHH+CGTTvWjnfY/wFu2kYJY8GTroz8ldGUFLrE90QoEURMKZCNH2dyU6jLhd8XYGzlwDqSjOnI1zx34FEwvmmRXWpMsR1xshTkGxYbzrcfzVCR8B7Dzh7W7SK9HddTX4XulWPMGjZs2a7GlSY2t3yTQnAkdgDRUtJHCUs9M7J07DZ8ZPwRi6LbK6De01eKPyaRxo/iOv9eF/DJnhEkzN+wBmjvwzZKd7m3Vsr0HyDZ2D64TDeG/iuCQWPGtGkAsapuWzaClFbsSrNRX4aVkpniKR9VOqekGh2DY/5XOjT5JE+qv7OrpnIpiO8oOb6Zp0dEZxB8n7aZJ4AglscS0eCdpNK5yg+2BQeu3GSqX11e/mag3TW0qyZ5anwjDe6zghEgs9RCZ07q0LhtBGy7e5/gh+fagcj1Qf0v/bExmhMNLlhCfje7Ty0olcvVMzQD/B3UbrG6OvWxhKwS1jJ+OqMRMxVtsRmajveqy3h9b+p5C6Kx+ZMqWat/STXH9lcPp6ZB7GexknTGLBkdARRMO/Fuc7SMDy5ia8WFOJx6oPYmt7G9pJTH3Mqb2rqSRdKs9DspZMFyX5YnQREgz6sZQRtOoLs3PxsVHjsHhEEYrSM5VZ0rf18vLy9khptpv/5N7YYwanm0VKphkm8PsDb4vEQn8im2W0N1RAY7QDr9YdxhsNdXitqR77ea3PiVpJ6A4SVt+ydTNtLi1uGtPkpKRiBgl7dm4BFuQXYhEnivqiw9vl30tgf37u2APjs0dWxZNl1tUwgd8/OGUSCz3relrDJXea21uxvqkBe9pacYRWuSrajspYpxE5EgxhaiQdhWlptvowOzMHs/XWJ5JmBJRboLdSRyFJ1qNITDh9/MdhvH/wtknsMBCZRGT76kAXJJKOev3ZQgLXddMi08LmkOjaXqlJoOKYFJGXQe/1vRu9sHxEYJN3bHIOk/f9i5MmseAnsjs3Iumf/GWzzscmlj6nt91XtqLQT0YSw8QcxvFwSiQW+hPPW+LywUfCOE/Ne7Yk/NMvZ1lywb/KMIxhHA+nTGJhIAsq6L57NhAGIuowgYfx9gD8fzY+u85UxpBbAAAAAElFTkSuQmCC;" vertex="1" parent="1">
          <mxGeometry x="672.23" y="270" width="122.54" height="45" as="geometry" />
        </mxCell>
        <mxCell id="8xl_JkXHUE990gDZxPh6-9" value="permission-topic&amp;nbsp;&lt;br&gt;Kafka" style="outlineConnect=0;dashed=0;verticalLabelPosition=bottom;verticalAlign=top;align=center;html=1;shape=mxgraph.aws3.topic_2;fillColor=#D9A741;gradientColor=none;" vertex="1" parent="1">
          <mxGeometry x="526.16" y="470" width="55.23" height="38.5" as="geometry" />
        </mxCell>
        <mxCell id="8xl_JkXHUE990gDZxPh6-10" value="ChallengeN5" style="image;aspect=fixed;html=1;points=[];align=center;fontSize=12;image=img/lib/azure2/databases/SQL_Server.svg;" vertex="1" parent="1">
          <mxGeometry x="519.77" y="220" width="68" height="68" as="geometry" />
        </mxCell>
        <mxCell id="8xl_JkXHUE990gDZxPh6-11" style="rounded=0;orthogonalLoop=1;jettySize=auto;html=1;entryX=-0.001;entryY=0.495;entryDx=0;entryDy=0;entryPerimeter=0;" edge="1" parent="1" source="8xl_JkXHUE990gDZxPh6-5" target="8xl_JkXHUE990gDZxPh6-10">
          <mxGeometry relative="1" as="geometry" />
        </mxCell>
        <mxCell id="8xl_JkXHUE990gDZxPh6-17" style="edgeStyle=orthogonalEdgeStyle;rounded=0;orthogonalLoop=1;jettySize=auto;html=1;" edge="1" parent="1" source="8xl_JkXHUE990gDZxPh6-15" target="8xl_JkXHUE990gDZxPh6-8">
          <mxGeometry relative="1" as="geometry" />
        </mxCell>
        <mxCell id="8xl_JkXHUE990gDZxPh6-15" value="Serilog&lt;div&gt;&lt;br&gt;&lt;/div&gt;" style="sketch=0;outlineConnect=0;fontColor=#232F3E;gradientColor=none;fillColor=#232F3D;strokeColor=none;dashed=0;verticalLabelPosition=bottom;verticalAlign=top;align=center;html=1;fontSize=12;fontStyle=0;aspect=fixed;pointerEvents=1;shape=mxgraph.aws4.logs;" vertex="1" parent="1">
          <mxGeometry x="705" y="341" width="57" height="78" as="geometry" />
        </mxCell>
        <mxCell id="8xl_JkXHUE990gDZxPh6-20" style="edgeStyle=orthogonalEdgeStyle;rounded=0;orthogonalLoop=1;jettySize=auto;html=1;entryX=0;entryY=0.5;entryDx=0;entryDy=0;entryPerimeter=0;" edge="1" parent="1" source="8xl_JkXHUE990gDZxPh6-6" target="8xl_JkXHUE990gDZxPh6-13">
          <mxGeometry relative="1" as="geometry" />
        </mxCell>
        <mxCell id="8xl_JkXHUE990gDZxPh6-21" value="" style="group" vertex="1" connectable="0" parent="1">
          <mxGeometry x="535" y="640" width="77.62" height="80" as="geometry" />
        </mxCell>
        <mxCell id="8xl_JkXHUE990gDZxPh6-13" value="" style="strokeWidth=2;html=1;shape=mxgraph.flowchart.database;whiteSpace=wrap;" vertex="1" parent="8xl_JkXHUE990gDZxPh6-21">
          <mxGeometry width="77.62" height="80" as="geometry" />
        </mxCell>
        <mxCell id="8xl_JkXHUE990gDZxPh6-14" value="" style="shape=image;verticalLabelPosition=bottom;labelBackgroundColor=default;verticalAlign=top;aspect=fixed;imageAspect=0;image=data:image/png,iVBORw0KGgoAAAANSUhEUgAAAZMAAAHMCAYAAAAQxEVDAAAAAXNSR0IArs4c6QAAAARnQU1BAACxjwv8YQUAAAAJcEhZcwAADsMAAA7DAcdvqGQAALY+SURBVHhe7Z0HnBbF+cef973jGu3ovSkCUkQBKxbsomJvMRpr7F2jSTRGY0zyT2KPsWs0il2xgxRBujQbINJ757jCFa68//3tzZCXl33fd57dnbn3fdmvn/V2l7t9duaZeX4zs7OzoaKioghFkZWVRbW1tZSXl2dvqlRWVtqbCtnZ2bYN/GzcuLE4m5zq6mrasWOHOEqMtBEKhahZs2bibHLq6uqopKREHCUGeRWJROy/ad68uW1LleLiYvtvkxEOh+3rIi1NmjSx06VKWVkZ1dTUiKPESL/n5+dTbm6uOJuciooKqqqqEkeJgQ3kVaNGjaigoECcTc7OnTupvLxcHCVG2kC+NW3aVJxNDtJeWloqjhIT7ffCwkJxVo3t27eLvcRE+x3pgE1VkA78XTJwfVwXZQT+yMnJEf+SHPgDflEBZRY2UK5QvlRBuUL5UkHWd6QH9UQV3BfqiQqybAHUd1VQVlDfVYj2O+IWjlVB3JL3l4hovyP+oj6qgviLOOxEyCoQe0Q0JAQFhVOA8buc3wcoKJy/QcZygil+HwWF8zfIaE7mwgYyWBYCVTgVF9dFxZJBUhWkm/P7KFwoKKnmd64N6RPO33D9jmsjaHPKFuD4HemQwZRTtpAO1d/H78Hn8D2nrHB9goCKMqzTBtICkeP8De6H40Nc24TfkQ6kR6ffEeMR6zk+SRRTQpaTHZvHnFYB4PZkAAoxMi3OLewBMovTkwHILAQWFcUGyChOTwbABvIKFVIVbk8G9w+fYFOF25ORFV61hwm4PRmAQqza0wCoiJyeDIAv4HfVsoUgwenJADd+5/Zk4Hf4A3mmCrcn48bv3J4M4Pqd25MBXL+jfnB6MgB+RzrwUwXUc05PBsDvKFvxegFOcHsybvyeqCcT1zIMcVpqbkGhV3W8G2TA5lQuLrg2Cha3tcIBhQQ2dPoEeQVf6EyHRHfZQlqwcSoXF/gdwcuE33XaQD4heOn2u6mYgjyT9V4HuL7u/DLldz9jSsKaBlXU7XxURt024HgUZJ2BBegOLAA+4bYIuZhKhwm/A91+R4XU2VgBJnySKX6HP3QLCuIJylemxBQ/fJI0J0wJiu4Mk4FFZwEDJtKC4YIgsKgBv+v2uQwsJgQlE+qiKUHR7Q9TjZV08YlSLpgSFBOBRXeLBQQtVXVQtnTbgD902zDVUjWRX5kiKDId8I0uAkH5H8o5YML5JmyY7AIHgqIGbJgKLDqRQSsTAosJG6YERbcN1HXEk0wY9fDiE1apNykoOlsTsucQCIoamRRYdKdDR0tVBqro8hr4XR0T6TDRSAUmRj3gEzf5xS7xpgQFD5l1CgoKGJyi0waujS1oqaqRaYKC8gXf4yfKM3eaqwRTVzG1FBumFuMnziGvcE2kR9ryO5gFfldnbx/1cBXlMklQdKdDR0vVCROVJZMCi982EEBQwfFuBAI95vzjfQ/5E+9lcN/HiQdswQ+4nrQnbUFo/A40meR33enYmwXFdYTLJEHRXcBMCkoqtli4mCpbftiASMjeAgK67ClkGqb8rtuGiXSYFJRUaqR6uhOTgqITEwXMlKCYGFM1KSg6K6QfwUt32UwlTPhd2jDRgNRZtmQ91C0oIFUExfNdyEqv0/kmbJioKFJQdBYwkIpdYDf4EeyTYSJ4pQOq5cWE32FDd0MCNkzUEd02UmnUI1RRUeFLLUILDeu86CwAKMRQfJ0VHzbgIOkkHcguMNKiE1RIBGSdYMwea/vo9LuJdMT6HTZ1B4JUBHULeZ2s/GeK32EDgVJnTEE5wvV1xxRsSItOEsX5PZagl7hZgh4J4SQGjuQuQQ87HMcggzkLN+K6WGmY6xiMmXMqFpYi51YWPGjltArl0tqcdHAXbsRidBBFjg0USM7CjXjjHxt8o+p3VGA8w1AFaYANlHmdATJTwEKH8AXH7yhXnBltCFqoH5wGJOoH6okquH+UYaDauEP5QH1XBfeOJehRJjkNSO7CjViCHjY4MYW7BD1iCtLvZMPXvhEcwwl2boAzkBhOJnNBJYEdnWmRDuE40g3wSSY8c4IN+FxXoEclRKDTdf1MJBP8DmSARxnQCeKKbhuIKQ0Vt3yPyCYKmAlBkb0fE87XLSho4ZkQrUwILAE8TNV33fVQCkomxBQTPnGKW1pyzlQBg+N1Oh+ORwFId0FB8MUQTiYIivR7ICgNS3SdMOF3U2UrUxqpDSEo2nINiTERvHQHFikoOgsYMCEoJnpBpio9bASC0nDg+QeeSUlfm/C7qbJlQlBMNFJN5Fd0TNEaIU0FLzhFt6DoLmAA+WXS+bowVYh12whIDOodHnZjQ90wJSi6y28mjXrIhpdOZF0MmzBkKnjpFBQTLRYAO7oLWCAoDUxtOUUql1CkbApFij+iSNFbFNn8nPOGf9v+HkVKv7L+ZpmVsVvFRVIH+AAzjzCBwVTwMlF+Udd1N1J1Cwqub8InyC97ajAM4SAaN1ODscUDzkchiAbnuFOD8X3neDilAwWCOzUYU+ziAcfDQfi9aLhTgzFVENdxQhZiFIJo3EwNjs0PCWxjllesT9xMDcYD/ng4+cTN1OBE3w6PLVvwEa6vW5QTEanZZlWK760MWmAlYDFFqpZbBXi1Ves2WoWsWPyWS0JWec5uY2VkFwrldLN+drcqbF8K5Q209juJX2oYUC9QJlC+Yv3uZmqwnLbrhFNMQXnjTg2WU+idQBmSQV+CuulmanA84tV3N1ODY+OSBNdHWmJ9wp0ajPgbm+eSXe+ZxDrGbzEBsTZw7KeYgNjg5beYAKcC5qeYANw3tui0+CkmAPZjBcVvMQGxPvFbTIAsW9xy6wuRaoqUf0tU/o21zaZIxVyrsFq9iIYg3IZCjQdbjhxMoYJDiQoOsQqseh3zC/gCfosuW36LCYiNKX6LCcA1EehlffVbTIAUjWgx8FNMgJOg+Ckmu+4Uv8C5qBtM2EBG6baBgiWDvS5QKLBxxIMLChd8otMGgE9020BeofIZE5KqJRTZ9irVLb+I6uZ3psiy4yiy4bcUKXmv4YQE1G2mSOloimx6mOpWnEF1CzpZ93YqRTY/bgndd9YvxG/A+AnqIBoMuv1hKqbo7uWi/OqOKRA1nUNeu925icCSKaJlSlCkHZ3oLGASnYKCng5mFunOJ6pcYAXpJ6lu0RCq+/kgiqy9yer+fWbV0sS9pobFalHvmGwJ3R+obumRlrj0pcj6B60m5gzrvuP3Wv0AjRWICXoKnF47F1OCYsIG8smEoOgQxz3W5oIxJEh3axI2dL/7gAzD8Ahn2IYLHI+uOAKargoj8wrp0VXQZBdep7DABu7fT78j37WKSPV6q6U/1hKRx6z9JeJkhpDVgUKtb6RQ8zOIcnuIk3qA71FPdPoK18ZQO8qELkzEFNR3mQ6dMQUijJ9+CUvIcvIe/V60iDFemWwsPBo3Y9Uqz1miQQDiPGMBMh1IkwookJxnLABOgQ0IsCrcZyy4NoIwNlW4z1iQR/AHxwb3GQtQec4SDSoV5xmLL5R/S5HNj1Gk5ANxIsPJP5zC7X5P1PhwqxLoC5QIxKrli/uMBaD8omw5hDVHUD84z1gA7h820PBSAfWc84wFuIkp3GcsuH/Y4NT3RM9YHC3LG9LZMwFQRL9UMR4y4TpbRLCBQKwzv3Bt2PCrRe8E8gibCb/rtuGKiCVwZROpbn4vqlt61N4jJKBiOtWtGEF1P+1PkaK3rUiTeBKKW9Ao4DYIOaBcoQzratEDWd91xi4TMQX3D9H1K6bEjbBwhu6hLqBr/C4aOAXoFBQ4xUR+6R4flunQaQOYyCtl6qzecfHnVPdjG6pbPsI6Xi/+YS+kdjNF1lxNdQu6Wz2zp61jj9OYHUDZ4vbMOSCm6KzrAPUEcUW3HVMxxQ8bSXPClKDotgHHo/BmivN1B3sTNkyIVkIi1fUiMr8t1a26ECfqzwdYVNuz02xR2WSJSl3iKbpc5NCPrvpoIqZAULCZiCm6G9x+xC2lXDARIE0EFhQwFGJdLSKJid5WpgiKCRt7YvVUy7+1p/QGIpKMGopshKh0toR3rJVVas8eVcE4v666YiJuQUyAiZhiIgZ7saEsqSYcg8Ci2wacgpaETufLLrAJQTHhk4YUFPjJ14fvNdspsmio/Uwktaf0phiRnZbwnmMJcBurEvn7PAXTunWVMRNxK5NGPbzYYKU+1ROjiuw56BYUU11g3fllSlBi04G8486CSURk7X1Ut7C7FRd/FGcC2EBUrF5KZJnVo4uozWZSAQ/ldU23NVFHpKDojCnAxKiH2/xiRzoY0h1YTNmAU2Q3VQcoYCBVnc/BhKBEpwN5xvnsbiIiFQusANiDItuesI78C4B7L1ZDacfnVp52JCqbKc55x800c1VMxBSTox6667ubmOKq2dzQQx9+YaKAwfGZ1EPR+UIYQDpgw6+3piOrbqTI0iOtmr5FnAnwjbpyqlt+gtVLOc/aV39vKBE6BcVETDEpKKkWU1zfTSYJiu4gLHsourvAfqQFFVkOOTj1qPCCk878QgVBQPGcVzs3Ut2igyhS/JpV+5wXpgvwh8iOMVZe9xNrf3nHhKDoHJEwMRQlY0oqCYqnO8kkQdFtQ7YkdAoK0oBKiBkyeNbgJujjHnEdVGgMMxUWFtrXQ08BKxzg33UJMPIGNr3mUWTrK1T38wBLUDJs+ZNUpsYS76XHUmTD38UJb6D86Wq0IKaY6GHj/k0Mo6eKoHi+CxNKnymi5XcXGNeBeCDQQzzkUgd+ixauh8IEMYGwYENl9LtC4rqehWTl5RRZd5u14+97EQEqVFNk80NUt+wsX4a9dNZHE3FLNlJ1CwrqjJ/13QkVQQnt3LnTMaUIfNhUQUuC8/sAGYGbVAXBC5nGcQ5+FwVHFWQYNqn6qnDWt0Fwhghw8wt5hftCFxqFVHdXWhXcEyctTmUL03+9Voi6xUcTVc4TRwENSs4+FO4+ypcFJFHuVeu8m5iC+qizvsv6yrWBuKWabthATOGkHciYogLqJ+ppvHi66+NYsXAXbsQCa7gxTmKQwZx1epAI2EHiVTMZBQUtXlVwbXwsBxnHCZDc5SHwsRwUAE5+IR1ITyoiRVv6JxGowL6+O7JznSUkQy3nBQ/ZU4qsVhTu+hpRE0vkPYCyVVpaqhT00BDkLNyI+oeFR2GDE1Q5U9ZxbXy4CnWXE1O49V3a4MQUOZqhChbqRD452fA1MsFAsq6QV+AMZJjXVmwikFkoALpb/qr5hRYHCm+qCgmAPyASqAAooKbuNVI2g+oW7R8ISSpSu5XqVpxjf8feCyhbfs3ucwIxBdfWWWalWKVKTHEL0hHPhu+5FwgKj0T5hRYDgrMvs5sMYuq+I9s/pcjyk6w93vBBgEEiVRRZcx1FtvxbnHAH6jtnFINLJgkKRgh0x2DYiO3RaMm5QFB4IC3R+YU0oeKYbOHrQM4s8/tBPYgUvUmR1b/AXv2JgBSmliLrf0uRjY+IY3egjqCBogtTgqI7piANugVF2ogWFG25BkHhjMW5waSg6C5gUlAQeDGkpTvvTAHfyG9Y+OWnyLb/Wq3da8RRQHpgBdFND1qC8pg4dgcaKDqDpBQUEzEl3QUFRAuK1mavU1fIb0wJCq6vu5eAiuLrg+kUAuUAvRQUbqTTLZGidymy9gZxFJBeQFDut7+j7wU/GyZOmIopQLegoFFvYlgN9TusO9ibEhQTQ1G6BAXX1LlyaqqA/MODVLe+ihR/YfVIrhRHAelKZOO9VqNgpDjig3Lk17pt8ZAxRaegwAYwEbtMCEoY/zPZFdKFqec0fgsK7hktdt29nl3U1FKkrIrqtu6gug0lVLu+2N7qsG0po0hpJUV28uaqG2HHbIrY3x4JyATwUJ5KxosjPqgvunvxiCmwkwmCgp6Qbhu73jNBUEPmSdy8Z4ItERAUCIsEx5wZGvjbHTt2iCNnYtOBwoBgrQoyHfO1EwGnYMxTdlWBm/dMkH6dFQKiECmupNo126h61iqqmb+W6lapfYY11DyXsgd0okaDu1B27/bWcT6FCvQuQRGXnaupblF/ayeYtZVphPebZQWbPuKID+JBdExB/ee+Z4L3yhIRG1NQz7nvmaC+J8IppnAbmYhb0X8fi2wISwEDiL+chn5sfkez20uL0ZmmQ0xAtKDoEBMQnQ4dYgJgA78rnccVE7wopWNmSqSymurWbaeKt+dQzTerxFl/CHduRnnnHUSNBnWjUFP1suGJOqsHtbCf9XOrOBGQaYT7/GwFgw7iiAcCMGKCrO86xARExxQdYgJiBcVvMQGxgqJNTIDMNF1iAqSg6BITIG3oEhOAvIJTUAC4YuIrKIDby6n8hSlUM32lOKmXUKt8anzvKZTdpZWVEZqG6CKWWC8dbinvNHEiICMJZVO47zpLVdw1rtAwQz1E3NIlJkDGRl1iAqIFRYeYAFwTaUCe+SomVkbuMVEfhpAgzvsBuDGpdiogQVK0VEFG4W9UgQ0knNMDQLrjZZYTsIF1elRf0MPv+zZ2aXmuduUWKnt4NEW2NNwnaPOuPozyhg+wEuevmEbW3ESRolfFUUBGk9Ofwr3RaHBXhrDMB+qf7piCultVVcUenuau3YcYhHSoxBQJ/gbxSwXYQLyGQHLiEfIqnmCFLON7WIcR9DI4QZXbk4FZtCg4mcztyQAUMm4mc3oyQOZVMjGF0/yahVK3tYzKfv8R1W1S66lpJytM+TceSbnHuh//jiay5SWKrL9NHAXsDYTb/4OozXXiiA/qOOo7Ap5qfef2ZADiFuq7Si8AQBA4PRmAmILYqGoDcHsySAOEkSOmiXoyjpYR9LiKxQUZjJ6PThsAAocM5ig8FymiidIC+9xCG4/SBz+lkmveTB0hAbV1VPHk11R82atUu3qbOOmS2lKKbLhbHATsLdRZPo+UzxZHfFDHUBdRD3XXd1yfE7i5yLilMz5CFHB9v9IR9ypQdmw6E4PrQ3l12gCwoVtQZAsiXlr8+OhT9ferqfiS/1Dtt+ssg2otL9NESqqo9PYPqPzpieIMn7olx1sXUu+xBmQKVsxZPsJqTKg9s3QCMQUjBLpjCmzoFhTEFKRHtw3gR34lvEuZmHQXFGlDt6CggDnlF3okXgvEjkfH0o4HR1NkRxoEWauXsnPcz1Ry/ZvIfHFSDTwnoZ0LxVHAXkddGUVWXiYO+KB+ow6iLmJ0RSemBAXojI+w4UcMTpoL0pBOx8hgb8KGbkGBDdiSBQxDeZ7SZQXmktveperJy62Lp2ZvJC5ZVj4z8zpS4c93xAPSl8iOcRTZPkoc8UBAbAhB0R1TsOlucGPzYkNJUk04xqQNE4ICYMfLuyR4U734mpFUt7JInEkvsgd0FnsMqn4WOwF7M5G11xPVuHu3SM5CNRFTgImYgrToFhTZEHabX8r9M5PB3pTzdQLHYHjLbQGLFJVTiSUkkW0NN+XXK6ECF0voBN9uDwAY7lp7izjgET1NPxAUHrg+0uLGBiuiSsdwXnLhAhuYqmbC+Tqdgvt3K1h1m0up5Ka3rbiqPjU7FWl0cFexp8jWD63/pdlQXoA2IiWfWNsYccQj+h05kzElEwRF2uDmFzvawRDmJ+t2TLoLCvd9GEmd1SMpvWcURcrTW0hAVs+2Yk+Nuu3Pir2AABChyPp7xT4Pp5eITQqKTmSw12nHjQC7vhsTjjHlfL9toFXkpnUSqdhJO/78BUWK0n+oBwtFhrKZQl2ntqxFwF7EzkUU2fS4OODhNIKSrjElFgR7bLqFC/ml2uD2dCeZIiiw4dfQHUTE7UrAFS9Oo9plmbGgYaODu4k9BjtXi52AgP8R2fxPq6HBf3YYb/JLpsQtiAnQOawGVMXRs6xlimP8GrpzK0pVE36inRMyZyZTuLWLZWPq1BbDC9jLsMpFZN194kAdBNl49VHGFBmQdWAibmG4C+k00UNJlpaQpTqOuYl1YTjrZqE1zk0QblB1pWGAz71iCIlTAJDZWK9HFWQYWjTcQobVNPE33HW9QN2mUiq58W0rQ9TX4Ul1Cn57AuUcuo84UqD8B6pbeoQ4CAiIIZRH4f2XE2XxliRCqzrRSuMQGyxdwqnv+F3V1cuB15iiAoai4vXEEoH4izisAkQLM1Tj3dMeS9BLkMHYVIHwYNEwOE8VOJLzoBqJxiJrEAjVTIbAcZeghxM5NoCXJejL/vw51cxZI44yg+ZvXUGhXPVeWt2ys6za4/7LewGZT6j5LyjU9Xlx5A+IV3IJe9X6jnrOXYK+tLTU/smJKdyFG7GUPuIWNlW4S9BDfBDnndLhW99IBl8TU9aQwW4DtwombEh2Tl6ccUKC75uEcpjd+5oMy4MA34mUfGj9z9/lhBBTICSIW+keU6SIcASIC/IKaXCK875azRRBMSVa9kq7/5khDjKHRod0RfNNHClS43Gl4YDMJ1JJkTW3igP/MCUosIGYojPYmxAUGedjbfhuEYawBYKSnMpPvqfItsx74zt7v3Zij0Ft8FnegORESj8Xe/5iUlBw/YYI9n4CGyDahhZrMhBngqDI1kQyG+x7sK5d9WFmLmoYaqb+rM2mFg8zM2fyQYBGardRZPMr4sBfMklQkBZsOmOwFC05y0tbaqRjdE6Ngw0pKDpJJihu7Fd99oP97Y9MJHsIbxmVyOrfib2AgOREip4Re/4j41amCIqJRr2M82GdwR6YEBTdNgBsxBMUN87aOWWp2Ms8wk14PZNIZTCLK4BB1SKrWazvuz6IKZg5GgiKGjIGh1VeRvGCdIzuYG/CRjxB4b6oWFdSQbU/bxFHmUVWn9aWmjArYF2p2AkIUKGO6lacJfb1gZgSrwHpF5kkKHYKTCzcCBvcoMuloQSFm67Kd+Yi98VRZpEzdD+xx6A2ePM9gEnFD2JHL6jvOoMwyBRBse8eCdEtKNJGpgmK3DjUfJ+571SE8v+39Lc6wcP3ACZ124mqVooDvZiKKYgjugUFmy5B2XXnMthnSg9Ftw0pKG7yq25didjLPLJ685adj2zw943mgL2HulW/Env6MSko3MYpB/ROdAlKqLi4eI/xFgRJGMNaWKpw1/LC9ZEozgq7cChnLS84H3+D9WRUQWZz1vLCWmGcZWeqPv2eKl7KvBcVJYXvXm2/Aa9K3cKelmM3iqOAAAbhJhTut14cqCFb5xIEcCynogriFmJK06bqC5nCHmctL8Rf3BeWOuH0VDhreeG6+F3EeI5IJlrLK2RdcA/r6D0goKreGOCu5YWgLdeSUQW9Dc5aXrh/aUM1LchkN4s1qrLjn+OoeuoycZRZhNoWUPPnLhFHKkSo7sd21o/gU70BbghRuO86K8KrNxYRB6wGtDiqb3ByGpsA62xxYgp6Gpy1vACEAUGbE4O5a3klWmcrHonW8nK0jF92+lKZnyDRuDFd43cA94+CAls608Khbn3mPmzOPamv2FMkUmtt+qZ4BmQ6VmNkJW+oC3GAE3CdQK8EcUtnTEFshNDptIHGv9sP+TkRN1ehvMgwrxmfCKnuOgUF14edVBGUuvUZ/LykHa/1hWBApL7KdEDAHlR8I3bU4QzfO4GYgmEo3YIin8vqjsF+pSPhXaKbZSIxe5OgRHaqfTsgHQm1530QK1Kauc+OAgzh4h0lP+JZJgkK4jzS4dVG0r+WD1t0Bvu9RVAipZVW6VAfn0w3srq2FHtqRNbdIvYCAtxSR1S1Suyr4VecMSUoJhr10oaXvFG6OxPB3rSgNAQ1SzaIvQwkx6pQjZi+qzHznkBAZhNZ9Wuxp4af9d+koOD6ugUFuLWh/FeZJii654w7Ubtmu9jLPHJO6IWnm+JIgTqrlxapFgcBAe6JVM0Re+r4GfhNCQps6BYUacNNDGbdlQz2OhNjSlCk841Sk7kPmxsdyFspOJgOHOAbkar6jYHXh/CxZJqgAG58ZN8Rgj3QGYhN9lCMC0qGEmrKrJw1mdtLC2gAmL1cHfXeVCPVlKAgPRwbru4GQVh3IA4EJb3I6sZ8+L7mPrEXEOADO1PjeaQUFN3D6CYEBbERqMZH13eCTNMd7KVo6XSMFBQjz1Cy9Dm+QbF69aE83lpokcovxV5AgHciGx8Xe2robqSaFBSdw2oyBqvkl6foBiPION3BXrdjTDk/q1srsZdZZB/Ygf/wHVtAgE9Ednws9tRAAM6EmAIb6J3oFBSkRUVQPDeVYUQmSBfSMeluI7tPR7GXWeSdeZDYU6Rms9gJCPCJWt7Liwi+pmKKzl4QkOkwISiJ8iu0fft2x7foMNuBM+MBc5Q5q+0CqDZn1WAkBjbwUxUknruQGxZZg4NUwDpmnDRsP+9Fy/vq958ONP3bWbyl53euoLpFA8RBQIA/hPtZjZSw+mKzCJDYUN85MQVwFoNFkMeCs6oxRSLXFVQFqx9jkV4OiF2c3hNWho+3cntYZmjsBpAJqlu0Ajtdz2kDTteKt8Hh+DtkcOy1Em1O14q34fdlWmKvE2/jEGIsz54uhNrxxDqy6T9iLyDAR+p4jVnUdzcxRf6t6oa/4cYUbE7XSrShQc+1wU1LIhu+RjZpCEZ1IZ0PO7rA9eF8FcXmtmjCnbmLIaY+4Wb5Yk+NSHHwQawADbhcgTrVYooXZAzWCWw4LUPvezMZhqDye4ug4Hc4hDtklpiE2je2EsXwdaTGcmCZOAgI8BPeKEE0mSQoJmzIr/JGx3ktYy5ITCAozmT3bSf2MoP8Sw4Te4pUr7X+577SBwTEx1u5Mh1TdMZHE6NEsR0HbQP4UlCw6cKk8xM5Bl8rUyX3xH4Z9b5JVudCsaeIiyXDAwKUqN4idtxjMqbobnDDBq6v24ZMh/VTX2AzkRhTzoedeM7HvymTHaasLswAnMKEuM9LyuaJvYAAf4n49Ba8yZiSqJHqB7ChOwZLQbGVxISg6HSMSec7CQq6exyy+ncQe+lPuJn6VEwQ2fxXsRcQ4DMVP4kd75iKKYiPJgQlXkPYL2xBgSGgU1CkY0zYaChB4ZB37kH2ku1h5pTalCM/mzlkF7GUd73YDwhIbVDXsWWCoOzqPWiMwfaVTQV7oNuGCefDRqyg4Lwq4cICKrhxGDV79mJq9uLFVHDncZRzWj/K2qcVYZ2rdCHvnAPEniI7ISSZ+9nigMxD1vdMERRcX1cM3nVVJAibzkyDU2BD57Q1U86PFpRYYeEQbtWEco7sSQVXD6Wmj5xLzUdeQY3vO4VyzxlI2Qd0ICrQO8XPCzlD9xN7itTwPq8aEJAKmIop6S4ou13RZKbpFhQTNuCQxo0bs5ZWSEYorxE1GtyV8i89lJo8OIIKX7+SmvzjTMq7aBBlD+pMoZa8B946CRXkiD1FfJhtExDQEJiMjekqKCErg/YYn8ELKVgDi5Mg7lpecExpaSnLBsSBsw4WgA04SRVksMpaXjqdnYzajcVUM3sV1Xy/jmrXFFHdxlLrpLc59m4ofPdqe3aaKnWLTyWqnCyOAgL8JdTmrxRqf5M4Sg6m9CPWoUGoCup9SUkJK6aAVFzLC2tsYa0tDonW8gpZmeKYK8hkLICmSl5enr1xkIKi6hi8ws9xPMC1OY6BM/zsaZggUr6TqueuoupvVlDdqnpxiVTqfzZR+ME1VgkSBwrU/djaulne51UDAlQJdXmfQoUniaPkIL4hPnAXggWIW6oxBeLQvDl/5QvcH2fhRsQtbm8DghJv4UYnEH+dllIBcS0jo3QOEwHYQOJ1tvJRWCBa3ExOJzDchOcuje84gZo+fj41f+NyavLn0yjn5D6U1b0lhZowh6MUaDSsO0tIqKYoEJIArYRyeKtLIC64QcYUnUNewFQM9stGwgiL9ydgSGewR2J0jxHKnk8mC8puWOnM7teJCq47mpo+dh41/+/l1PTpCyj3vAPrxaW51YP0mN/5vzxC7KkRqfxB7AUEaKJRG7GjBmKPW0wJiozBOpE2ZJx0S9LoCkO6g720oRPZCtlrBCWGrI6FlgAcUi8u//kVNX/zciq4fihl9WxdLy7MpfHZD9/r1IdMAwLcoS9GOWFq1MNEox42MHzlxYZSLpgSFN0ZpiIoOu2nEqHcRpRzUj9q+o9zbHHBw/TG959C2Qd3oVCTXKuVl0DcrTwK5TJbS0W8z6oGBPAxX3chKNhMCAps6I7BXuK8cg6YEhTdNhIJCmajNW3aVBztfTQ6qCs1+f1wav7fy6jwnauo6dPnU84p+1MozxKO6Dfd4R7mYpWR0g/EXkCAJkLqvWWvQzrRyGvpFhQTjwS8xGBW6jNNUGBHgpkQ+fmp8w5HKpDVsQUVXHsUNX/zSltcmr91JeVfeShlDWAuo19XZdU43lfwAgLYhHmfAPcTp5iiA1Mx2E0viC2lJgVFp9LD+WhRYGgN0/b8toW2yrMLiqnv+6uoy1srqPs7K6n3e6voygkbacqacst2/e+lDeH6oa3cEQOp6QNniJNqRHbMFnsBAbqwes+M77/7LSZAxhTdgmKihwIbiImcuOgqgpoI9lIdddrAtTHH3E+nbK+qpfO/XE89311JD31fRMXVdYRiW10XobKaOhqzqYIunLKJeryzgvp/sIrOGL2O3lhUQqVV/hfulKFuo9gJCNBEVmoMT5sQFFw/FQXFdaSWwV5npsEG0GEDz0fcvKwUjxUl1XT852vpgA9X07RtVVSZ5I30auufi3bW0ZztO+nueduo36hVNMASlxOsazw6r4hWF6u/rJTy7PhR7AQE6CFUcI7YU0NHz0SSSYLCadTHfQNe9c1IJAaXyMnJYb8Br/qWPRKCDMNP7hvwcCyWP4jGzdv68VhbVkM3TttMsy0B8XvkqrBRmNrnZ9HBhbl0TvfGNKRDPutz66lC3YJ9rWbOJnEUEOA/4V4/WC3E7uIoOVgVA7EBMYXbqES8Ky4uFkfxkXELdty8AY+4lUz0cH3EYAgLJg+pBP1oVN+yl3Eez5XjvQHvWUwADEFMOGtzAc6SLcgkPN/grs0VKybIDO59OlFVE6H7Zm2h91eXU9Wey5tpocBSki6Ns6lvs0Z0SucCOrZTATXO0TcM6Bd1P+DLku5fEAsISEa433rrf+qisH37djtuuWmgqooJkILiZpaoipgAKShIB/Y5cJZsgQ3EX/x0IlRaWuoYCRG4samCRFRUVIgjNXBT8VTOCdjA4mwqGSzB30jxgGO5yu3E58vL6A/fFdGGyoYNkNlWuelSkE37NG1Ew9rl0cmWuHSyhCalKP+R6pYeLg4CAjSQ3ZXCfb6zKrt6vJJD6AAxJU6bOi6ckQ3EHDTMOXELIG6pigN+D4s2oofCAfE3njg4gXxCfjkRKioqcsxF7lAQMgsOQmJUHYOEcFoFUFApWKqOgSP9WrixsrqO7pq5lUat2eH7kJZfdMjLov2b59DgVjl0bId8OqB1nlXQxD82BFVLqe7ng6ydVM2xgHQm1PhYCvX40Npx93wC8QorpMt9FRC4OcNWsieDeKfaCwDchRvRk8HvRwtlMhIt3OiEHElySoevYoINvRnVxLgREyQGNiAmKoLil5jM2VRFN0zfTGsq9K/G6ydNs0LUr0Uu9W+ZQ0e3z6Mj2+ZTLro0BomsvIIiJe+Jo4AAfwi1+DWFOj8qjtyDOILYotqydysmgCMobsQEaeHEYDdigvt3SofvYgJUM8ytmAB0zeCkZIKCrqLXlxFfXVRKf/puG1UaejaimwGF6Lnk0iGtc+nQNnnUvglzaRQu5d9S3dKjxEFAgFeyKNTuPgq1vUsc+wcEBaMfiUZXvIgJ/hYCoSJabsUEqAqKWzEBsXFei5gAlcR4ERMAQUHmxXM8/t3r8igPzNpKLy4tzehBmu752XR42zwa0iaXDrJEZj9LbPyeNVa35ASiipniKCDAJaE8CnV8kkItfyFO6AGCAmFxii1exATg7xGbksVHL2ICVGKwFzEB0YKiTUxAssR4FRMAG07PaeAwN1PlJOiEXDFxI43byJtUkAk0zw7TUEtchrbLowEtcqivteU3cpePu9gxk+qWWYISEOCWrBYU7vIqUdNjxQm9IDBDVKKDJ/AqJgBxCVui+OhVTECyGOxVTIAUFK1iAhIlxg8xAU6CAiHhzFKIZmdthEaMXkc/lu6eaXsreMRySMtcOr5jAR1o9Vx6NW9ELfP5eVu3cABRzQpxFBDAILszhXt8ZAWmXuKEORB3ICoyUPshJgDXgVjEG/LyQ0xAohjsh5gA2AjjfzpBIkzYgHDAOQDPSNwKSZUlJEd8vCYQkihqLI2etrWKHvqhiM6duIEGfLSaNuyI39qJR7jrC2IvIIBBbj8K95reIEICEGwR2PEunZ9AZLC5jVWqQKxMxOCwDMQ6gQ2O+rlBpgOb25cSsX7WyZ+upfVVvLnaeyOnWz03xy5tIgoOsZpj6fV9/YCGJdT4eArvN5UoCy++Nix4Yc/vtfzQk9AtKLi+CUGx+1AmDKFrBBt+OiIWCIrb9bZqLCG5cMx6WpxmU38bivXVdbSpnCm6oTCFu78tDgICEhMqvIxC+4yydvQ2djkghqGX4ieZIii7BuRky153sMcYoC4bGP9zc208bP/djC00s3inOBOgwnUTXawG3NjqnZDeXmpAumPFiHYPUajLv8Sxe1ZuLaXJP6+jssrUHrY2LSg6YvBuT3dgCEZ0Cgps6BAUXM/tUNqHy0pp5Ko9H+wHJOabkp20sZzZkwvlULjza+IgICCGkBXour5Joba3iRPumbF4PR306Cg689Xx1O2ht+iPH82kkorUbTCaFBQtMbi6Gouh7w56EJhjzZlJALXjdqEwQ4KTIGRyPMFw2337fmsVDR+7XhwFcLmsc2P6y5FtxJEideVUN5/5tcaAzMcSknDPqUR5fcUJ94ycsYhu+uQbcbQ7p/doTy9cfhzlZvsTtBGgnWaZRsOZGYu4K6/HiY/ctbww+xYCxrGB+BtP7OKuGozFvBDsVeFOJQYQLWRanFvYAySEM5U4Gdsra+nAj9ZQtaL9AGe+P7MLtWJOFY6sf5wiW/4gjgICwhTus8Sq5MyGiQN3vz+dXpxrXSsBCJ+n79ueXr3yxPoTHkEMc5r+CxCsOVOJAYK80zsuieBOJcY9Q1DiLdzoRKKpxHEtwxD+SDXQuwHX1tmlS8blX20MhMQHPlxaJvbUCbW7RuwF7PWECyncd60vQnL+c6PppSRCAlDrP1m6gTrc/wY9OeGH+pMecCMYiYAoYDgqXuD2A9wzRMuvh/IJZQyq6Pfc6ljQO0FidIqWE6OW76BZwQN3X3jgxyIq27nny1IJCRdQqPFZ4iBgbyWUe4glJEuJsrx99RTh45BHR9H4VZtZU9arauvogfHfUr+/vktlHp+n+C0oQM6C1YmMwV5J2idCYnSqI0BidNuIZl1pDd0xa4s4CvAKKu/o1fwJDKEeL1r/V++WB2QWocKrKdRrrLXjrcFaYwnCAf/3Hi3ZWirO8FlfVkn7PPwO3fvBDE/r8ElBwU+/8CvYJ8IPG0o12ZSg6M4wyd2WkJj6OuLewj1zttmrB7AI5RLlHiAOAvYmwh2epFCXx7BXf8Ilm0oqaD9LBNaWel9Dr8bq3jwzZzEd+dhHVFrpvpcCIcHzi71NUJQ9mSmCMm5NOU3cpPY54gB1sDz/l1becgn3HIP/1x8E7AVkU7jbh0StrxDH7sHU34H/eJ+Kq/x9h2ThlhI68O8f0KylG8QZPhASrA/ot6DofsbsJQazanEmCMqf5m3z1I0NiM99c7ZSLffZV7iAqFEPcRCQ0YSbUHjfCUTNvK8e/fr0n+jU/4zTNsJQZAnU8FfG0svTFoozfPAQ3c/ZpwAPzFNVUNhNwnR6IBTLyMWltNTFAoUBamzZWUdfruYPN4T3+dz6v38tuIAUJLuTJSSTiQrwCWf3YKLOHz+dRbdYm26gU3d9Npse+HS2OMMHcczrx/miQfpTVVBcjS9IQzpnYEkbfnUTUTAem79dHAXo4u/fF9kza1jkdLS27uIgIOPIHVC/WGNeT3HCHTtraun6N7+mp6xeiUmenL6QbntnihVD3MU7HasNp6KguB6shiEMefk5JhgLbCDD/LDx5uISWlcZrAasm5/LqmnSOhfPTjq9ZP0/6J1kGqHGJ1G450Srid5KnHHH9h1VdP7L4+id+avEGbO89t1yuvGtya4FxW+koHBeUnQDp1Hv6U78DPbx8MvGiz+7nzYYwOOZhSVij0GTg60mXPDsJJMItbiCQvu8b0UZby1zLNY44oXRNHnlJnGmYXj7x5V0x3vTxFHDA0HBZkJQYCNZDPZ8FzLY68Srja/XVtgt5gAzTNlSSXNdzJgLt/292AtIb0IUavsAhTo/KY7d88OarXTys6Np/mYXDRQNvPbtMnrAwPMaVeSjBt2CgrfxkzXqQ+Xl5Y79NvwRpzeArhAezsvEqeDGBn6fm3GXT9pIY9fvfd9yb0hO71RAzx3VVhypU/dTX6Lq1eIoIO0I5VKo07+sXslF4oR7Jvy0hi4dOYkqapmrKxjgsVOH0GVD9xdHPLAWFoaoksGJj/L3EPQ5cGwAxGAsAuyEr9+ARw8Cmyp45sKZOudmanJFTYT6frCKdgYvKRpn2vBO1K05z1+RjY9QZNMD4iggrchqQeGu7xI1OVSccM8bMxbRzXFW/U0FsqwA/OmVJ9Kh+/BXv0bALy1NPuzu5hvw6D0gTqqSaOFGJ8rK6tfhc4rzvvaNYIDz9J+Lm67cUz9uD4SkgXhiofMqqokItbvTqqmtxVFA2pDdgcL7fuVZSDCy8dDnc1JaSADep7rkjYm0tYw/nIuA7/bT4snQ/S4gejHx4rzvA206BYXTHZNM2hAMbzUUb68oo+2V/CGKUOH5Yi8gLWjUg8L7zSDK3VeccEd1TR1d8dpX9NjUBeJMarO1cidd/OoEccQDoz5u4pkKugUFOMV538UEwJCOxHB7Jviu+/xgZeAG5cFvt4k9dUId/279r0AcBaQ0eIek9xyrZ9JSnHBHeVU1HfuvT+jjn9eKM+nBrHVb6b5RM8WROhAS7vefODSEoGgRE2AiMcl4eX4x7fkdyQCTfGD1TnZyF4C0CO83m0L5Q6xa17BlKCA+oabnULjXNM8+Kq2spoP++SEtSJEZW1yem72YtrkY7uJ8GdENpgVFm5iAhhaUSVvVvyAWoAc8pvvDrK31Bxxyu1Co51cU3n+NFbRODUQlxQi1eYBC3V8VR+4prdhJvf/6Lm0uT9+6iucnJz83WhzxKCjQ2wPXNUoUjRSUsK7nG5KGFJTvtwVikgp8tAqfZhYHXLIKrKD1NoX7b7MC2P3iZEBDEu4+jkLt7xRH7lm5qYR6PPw2Vdak/8oUS7eV0mOj54kjdRAbdb6nhwkNpnoo4dhxLx00lKAUV6fe/PS9kYq6CK0v9b7AZqj9b2xRCXd50zrS2qkOcCTL6imuIGrqfervR7MW00FPfGSvmZcpPDLd3QrDeHaiU1CAiRhs18hMFJSPF5Va3U9xENBgFGaH6JszulDHZj6VLwx3FZ5uicoWCvecbpVg/ouRAS4IN7WEZBl5XWML/P7DGXTFqBniKHMot3pY5780Vhypg9iLHoRuQUGc12ljV/Mu0wTlo438xQYD/KVTXhZNPr0ztSvQUIAhKvn9KdxvCYV7fU+h/KPFPwT4TnYXCvdZ4HnGVp3VDTn/+dH07OzF4kzmMWnFRrGnDh7CY2VhCIrOZVFwfbx5ryvO73bnmSQo6yuCFYIbkoNb5NKXwztRS0tQ9BIiyu1BoZ6fUbj3DxRqeaU4H+AL+QfXT/3NKhQn3LGjspqOfvJjGr9ysziTmeB1hNOf5T+Mh5gg0ENY0lVQQpWVlXsMBsEYV1iQCZxpbvhdrFGjYgNdM+43AQ4ZtZrWBkvONwjHt8ujZ45sS40b6asUCaleT5Gidyiy6S9W7Ql6qG4JFV5Koc5PWTveGgTrt++g014YQyusn3sDYSu2rX/wYmqUxSv/WPNK9k7Ky8vtRjc3pnJ+Hw17/D5HvBLZCFk3v4eY4BQCPdbbUoW7lhdA5iHTkoH52NyvlfV8dyVVBA9NjHNpj6b0pyEtKSdLvVBro7aEIsWfUWTj/VaT0f33vPc+rIDR9g8UavcbcewerPp73qvj03rqrxuuPnAf+vv5Q8URH6zfhfiLgK8Kdy0vdBoQ57GpkmgtL0fLUB4Iiu4hL9jRZQPdzQCz3Ny7Of3lkFapISQgqxmFWv6Cwn3mU6jrSKtV4u2TsXsHlpB0esEXIRk7fzWdavVI9jYhAa98t5wqq92PjGA0BoKiMwZDeGDDr8cOcWUMgd7EMxQVG/G6VYmoCbTEKA8d2JLuOaiF1cUXJ1KJUA6Fmo+gcK+vKdRjNIWaniH+IWA3Qk0o3P1jS4AvFCfc89KUBfSLNyfSjgx4h8QNeJFxgdUr84ruGIzY6tdz7KR9olQQFK6YrN5eTYGWmOPpQ1vTlX2sXoA4dkOlVQZM+CzUZCiFur9B4Z7fUKjF5eJsADXqROF9xxM1HSZOuAM+fPDTWfSbL+Zk1Dskbrj8rUlizxsmYrAfgqI0wNbQgsIVk7WlwVcVTfHhsHZ0Vo8m4sgdmyrK6Yhp4+iUmRNp1PrVtLPOQGs2f3/74XJ4/5UUan2HVRO8TXtNa3IHUngfS0jy+4oT7qipraNfvz6Rnpj+kzizd7OmrJK2lPqzarkpQfFiQ/lpjSlB8aO7tWNn8Oa7bpqEQ/bHrw5pz5sYEcvyshI6YsYEWr+zir4vLabr58+lo6eOo9dWLaUdNQYaBdktKdThQQr3XUqhdg8T5XhbRj3dCDUeZvVIvrDS3UmccUfxjioa8exo+mBh8JXMaL5fvUXseaehG/XJUBYTYEodYwXFzTOTAH20y82iWWd1YX9FMZaZ2zbTUVZvZEfMp0ZXVlXSPT//SIO/HkNPLv2JNlQa+CZNKJtCbW+hcO9vrR7LC1YrfSBO1v9bhhJqdhGFenxIlNVUnHHHmq2lNOzpz2jmOu/PCDKN3/j8kS88MDfxprybOM8SE2BSUOSsZYfZywENxH5NGllC0pma5bCLzm5M2ryBzpo7zX5QGY/iulr66/JFdNCUL+me+fNosdWLMQG+Xx7uOcUKtGOJCo6xTnjvLacaoda/oVA3SzQtEfXCj2u30jH//pxWFu8d75BwWV5STsU+zmZDLMSUXhOCwh0lchURTAkK90VFCV4aCvCfQ1rm0lend7K/f+2WiPXfO2tW0EXf8T4o9Nr6VXT0jK/oV7On0I/FReKsXkJNDqXwvp9SuNcPFGo6wipYmfDBLkz9fYlCHbyvwDx96QY68dnRVFQZfIAuEWuK/X1xVgqKzjflAfcZiuu7aYgeiipdPQ6/BOzJMW3z6MOTOnga+EEv5Pnli+nWn74TZ/iM3b6VTpz1NR05eQzN3LaFqq1KpZ2cThTqPpLC+y+3ei2XEWWl6cP6UJ4ljtMo1PICccI9o+Yuo9NfHktVJvI/zZnw/Uqx5x8yJuoWFE6c93QnpgSF+8xk31buejQBe4ICcmm3JjTyuPb1J1yCoP+HBfPogaXulumOZWlVJZ01dyrt+9WnNHr9atphlUXtWD2TUOd/UbjvSgq1+z+i7DRasThcWL98fEF/ccIdCGGPjJ5LV74/1chU7kzg6Tl6FrZE7wSkiqB4vgtpSOdzDTx04pIdjHR5Bi8g3tyrGf3t8NbijDsgJJd/O4NesYK+31Rb5e6K+XOp58TP6JklC6nUxAwwi1DbG6zgvJRC3T6wChvyJ4ULXHZHCvez8j6rsTjhjjorry98/kt6ePJ8cSZAhc07Kqm6Rk8PzqSgJHtOE6qqqnJUAdykvFEVsHYWehEcVG1ArLjPT/Z5Z6XVBQ/aTm7BiiiPDW5N5/b09g5JVV0tnTJtAv1UaW7BxTPadKC/9z2QmjXKMRfid66huqXDrVq3yjrQEzhckdOTwr35XwCMpaqmlgb95V1aXxW8w+WGb24+nXq2byGOkoPGOdbmUm2kQ0wQIxH0OXDiPEaIsP5ivDgfKioqcrxb7sKNSDgSwkkMnodg4TAdDHh/FW0LvrTomneOakdDO3l7h6SytoYOmPQFlTIaJX5yQEETeu2gw6ldvsEH53VVVLf8fKLyr8SJBqTxcArv8444cE9JeRV1f9j7dfZmvrjmZDq0m/qwqAzwnB5HcXGx3XvgxOBECzc6sWMHPsEdcbTha98IBnQ/Q1GllfbvaGQuk0/p5FlI1u4oo76TRjeYkIDvy8vooKljaZAlaPO2G3oHIpxL4X0/pnC/zRRqdaM4aZ5Q67t9EZIVW0qo19/eE0cBbqmu5dUDN+/W4W9MxOB4NnwfaEsVQemQH4gJl2bhEM07owvtU+htNtzC4iI6euZEqjCxLEoS0O1eX72TTps9hfaf+DmNXLW0/h90E86jUMe/WaKywfr5rFXTeZ9ncE+IQp3/S6EOfxDH7pm9YhMd9uQntJMZCAP2ZJKGGV3xMCUosT0aLU9tUkFQejUNpgdz6Nm4EU07swu19fiJ3c82rKFT50yh8hQQkmggKttrqunOn3+kvpao/GXhd2ZmI4UbWz2UX1K472oKdf+EKLud+AcdNLJ6RZMo1OIsceyekd/8TKe++GUgJD4xbY1/y6qoYCIG43tU0YKibQpAQwvKtb2bib2AZOATu5+e0oFa5HorDq+uXEI3zJ9LlQ04tKVCkSUqT61dQb0mfEpXzJtBpVbPRTvoqTQdRuE+P1G45ySivEPFP/hEVlt7KRgq8P7Nlj9/Nptu+mgm1Sg+/A1IzrJS3gQUP5aQ0h2DcY/yXUCgTUxAQwpKx2aNKC9VPtKUwpzXpTG9eXx7aurxE7t/XvQD3bdkAe1MowBUZvWeRm/dSPt/PZrOnjWZlpZsF/+iESxfkj+IwvuNs7bZRM0vFf/ggdwBFO41nSinqzjhDrjuyjcm0qPT/HkXKOB/VHn4UJYXdH9gC0hBCXOe5LuhIQVl3ybBUFcirt63Kf3zsNaU7/GlnDt/nEP/Xr0sbVuyeDN/RvE2OuqbSXTqjIk0YeNaM0Ngeb0p3PXfVo9iPlHru8RJHqEmJ1N439Hk9QVKvAdx2jOf06gFwaq/OqhtoNcUMPPKlKCEo7spumgoQekdLKsSl/sHtKA/DmlFjTz23q6YN51GbliTEW9DIw3zyorplz/MpqFTx9ELK5dQtYlnP1aPItzhj/XPVTo+RhRuI/4hMaEWV9vLvODzxF5YX1RGhz3+Ec1YG6z6q4uaBhz6NSUo9thGpgrKrX2ap/J7yQ3GI4Nb0bX9mnv+xO4IqyU/eusmcZRZLK/YQfcvnk+HThlL//h5vpnnKlmFFGp1tSUqP1Go88tEuf3EP+xJqN0D1u88au14Wzpo3urNdNwzX9ByS1ACMhcICt5d0RmDdw2Up4OgqL6pKenZModae1wqPdN4dWhbumg/b9+vqKqtoSMnf0mzTTxjaGDw0a5HVy2hwZPH0G8XzKNV5QaCLr5Z3+J8+zlIqNt7FGp8DE7W/5tFqNOLFGp7J/bqT7hk7ILVdNYr42njjkpxJiCTQfzU2UPZLdKmuqCoLi0QzRFtvb18lyngscjo4zvQCV28vQ2+qbKC+k8aTUurDHywKoXAy5evrltFh04bT1d/O5PmFJmY6hmiULOTKbTPpxTed7K1fwGFe3xJoZYXin93z8iZP9Olb06i0mB5FCM0ykqNRq3OIa/Qjh079ojQmPIFFeMIC36f03OQb2vm5uaKM8lBRnB+H8xYX0HnTdqYEWP6bmmWHaZxJ3WkTs28FaAftm+j4XMmU+3enJlRHN60kG7q0YuOa9tBnEkP/m/MPPq/r38URwEmaJmXQ0v+wGsEVFVVsaYIQyQ4DW4pKpwPbSWK8yHL+B7WYQRrbaGnogp3LS+YraiosF98UQXi5mYtr8M+Wk2rK1LrJTpTdMvPpnGndaQCS1C8MHnLRrro2xmptIRhyrBPbh7dtu/+NKJdR8rL0jOE4Aeo6Te/PZlG/rBCnAkwRYem+TT/t+eJIzVKS0vtWKxKs2bNWGt5Ib4j/nLifKK1vBwtQ6nkpgsoLla51DV+F81ZXb2tfJuuDGyRQ5NHdPIsJKPWraYLAiGJy7KqSrplwTzqO+kLemH5z7TNOk41qmtq6YQnPwmEpIE4qCX/OSVipM4YDFGADb9icMIog+6MzmCP3omu8btobunfnHK8Tl1KM45um0efndSRsjykG9+veHXlUrp+wVxxJiARFVZ9uX/pQhoweQz99acfaKWJh/UKbCmpoN4PvU3zNmX+hIlU5ZDu/GV05JCSTkFBDPbLRkIxMRHsTdgoaBSms7voWeo+FTkHb7Uf195qdYgTLsC8+P9bPJ9+uzgYW+eCHtyTa5bRYdPG28u1LCottoW5IVi+qZh6/d97tN3qmQQ0HIP3c/dczc9gHw8pWl5jcNLxj0wRlNt9eK8i1YEz8Vb7U0PVXnqLx06rYN09fy49aWqF3QwGy7UMmzmRTraEBRMYaiLmBgtnr9xEg5/4WBwFNCQ5HmZzmRAUP2KwUgpNCYrOFxu7NGtEp3cw+JEkw+BF9gcHtqAHD24lzrij0vLzxXOm0psb14ozAX7wY8UOOmn2ZDrgq89owuYNdj7rwqpKNPqHlXTS82PEmYCGpkNjb58gMCkobl8PUZZLGezdGlJFp6D83gq2mdg5gZA8dUhrunL/5uKMO/Ct9pOmT6CpxdvEmQC/KbLy+JffzaQeX31KL6/42f6ssZ+gnj414Tu6+K2vxZmAhqZROESdW3l7URiYEhTM7nITg9l9r1R/sTERXZo3omv3y6yl6SGOnxzbgc7s4W3G2g7Lr4MnfUGLDX6rfW/n3iULqfuET+l3P8z27T2oV2YsogcmfC+OAlKBLs39GxExISjATQx2NZCXzoLyG6t3kptBD0+mDO9EA9vyXuSMZbMlIP0mj6bNterfjg7wj/9sXEtdxn9Mw2d8RaWM966cOKOft2XoA/zn4VOGiD1/gKBgSzVBcf1UKF0FJS87RH8b3FIcpS8ts8L03ZldqLvHlZHnbN1EB08bT1VWayeg4cAy+N+WlVAfS9QPm/IlLSxyt4Jv62YF9KcTvH8gK8A/urbxfzQEvZNU66G4FhPgdmyNgw5BOW+fpjS4hbfWfEPSNS+Lpp3ZmVp7/M79B+tW0TnfzgyEJIXAFOKVlRV0/JwpNGTyGBq9nv99kUsO2U/sBTQ0WaEQ7evihUUVZA+Fs+SKG1RjsCcxATqCfSzSBjLODzDK9ezQNpSt2Qk6OKZ1Hk04vTM19bga8lNLFtCtC7+lnQanqgaog5K+tqqSrpo/156qzaGwcS79/VR/h1YC3DGkfSHlNNLXe0DvBGLCWUbFDSpxPmT9kmOERq8Dmyr5+flshcQ0NCxmpgoWeXQSFWSkG3X+eHkZXT/T7If+vXBe5wL6x+FtKMfjB61+8+NcGrlhdbA8SppwWbvO9LcBg8WRGqWVO6nbQ2+Lo4CGYspNp1HfDrxhdcRFgLULVRvQiIEFBQW2uHBA/JX2koEYi7W54tkIFRUVOd4td+FG3BQWDVO9MYBnLpyFG6GOWIASNmIzubCwUOypg0v8bsYW+u/K1P8w0B19mtNtA1vY04C9cNW3M+iLLXv3KsrpyM/DTqWm2bznY2/PXkLXfzhdHAU0BKv+cBE1yVP3GwJ1SUmJvc9duBELQwJODE60cKMTEDh0MpwExbe+EYI7DJh4qQY2YnsiO3bsEHvq4BL3D2lJPfL1DtN5Aan8y4Et6Y4DvQkJHvCeP3syfR4ISVryW6s3yWXEgG5iL6AhOKpTK5aQAI4QxGIiBuP6sONkw9eBtoYUlHhqmQys2zXq5A4pOV0YH7R65rA2dFmfZp5etqyw8uu0mRNpyvbgZcR05YMtG2gTczXigtxG9N/zjxRHAaZ55hf4QiYPtPy9YCoGO9nw/alNQwqK7OZxaZ2XRWNO7ED67phPntUNeeXItjSiu7cFKrftrKJjpo6l78rqu84B6csfFnwr9tQ5sX/w3klDkJ+dRe2a877yirjppkEcS0MJipYpAKYSg2co0YKCc26Vfb8WOfT2Me1SYrmV5lZv6cNh7em4Tt7enF1aWkJHTx1Hqy1BCUh/Pt66kVaW84Zzc6ygNuqSY8VRgCmeP+swymLOsPIyxBULYqFscOsiNs5rERMgE2Ni2nD0bC5MBMA5NxzeIZ9eObyNvkxRoH1ufS/pgDbe3oOZW7SFhn0zkbYGb7VnFL+dz392MrR3R8pnBrYA92CF4FMG9hBH6ngd4nLChKAg3iLOh00Ee902YjOsrKzMTqQbTuzWmJ63BKVR1PCZKfZv2ogmnNrJXuHYC2M2rKURc6ZSjcs8CEhdJhZvs7+PwgEt5InXDxdHAbr5zdD92R+lQwzzY4jLCd2Cgoa83ag3EewbwoYXQRluCcrrR7WlAq/zcBkc0jKXRg/vSM1zvbUg31i9nK74cXbwDkkGg94Jt2T37NiSWuZ6a6QEJKdxo2y68+RB4kgdzjt9btD92AHYkctUsDe5lhfUGO+kuOXIjvk07sQO1Mrjm+YqnNaxgN63bGV7mFGGZTieXLqQ7lr0fTD1N8OZUVZC32zbLI7UQMn6+sbTUuKZYCZz91F9xZ46aPTiHT2db7HDhm5B2XX3JgQFGWZSUOSLlG7pVphDc8/qQv2b54gz/nNJ9yb0/NFtPX0FEp/YvXfhd/TX5T+LMwGZzp3z57EbDR1bNbXK9N7z+WrTtG+SRzcfP1AcqYMYhUAPMdEtKNh0Ccpud65bUDC2hu6cSUHx0jsB6C2MGd7R/q66n6NeuNQ9fQvp/w5rXX/CJfhi39XfzaT/rFspzgTsDSytqqCxG9eJI3Um3zwi4z9f3RCErdj27sXDxJE6CO7ywTvilm5BgWjpEpRQSUnJHg0cJAaBH2thqQKRUB33Q2IQ7JEwrOmlCoauOGt5IcPgICwZINPkhS9Xl9PNMzdTmfNyZspAlB4b0prO3dfbB63wMuK5syfTPOYD2YDMoGN2I5p9zHB2uT7yiY9pwaagzPjJ0T3a0airTxJH6qBXEhvTEKsQt7DWFkdYIEqIrSqgzOB3c3JyWB0I3CvisBMh64J7WEdCysvL7WCvCnctL1wbS6DEuzEnuGt5IWnSBvabNGniuedVWxehC8dvoBlbq1w9m8Bb7SOPbkdDO/BeaIqlsq6Wjpk2nlZV+j+dMCB9eLzPQLqwc3dxpEZ1bR21/+MbVp0QJwI8UZjbiJbdf5E48gfEX8RhTgzmruWFURt0ADgxONFaXo6WEXAhDFof1liJhvLqtAH1ReJhA/uY4QUHeQFT/t47sQO9d2x7ymG2CPHbo0/s6FlIdlpCMnDSF4GQBNBDP/8o9tRplBWmgR1aiaMAL6BOP3PGofUHPiJ7JRxx4IIYj1jvl424V5GKqDMxsIEeg05BwfWhvNGC4sc0vMPa5dGSC7rRfX3VVyuePaIz7d/S28P89eVl1Hvi51TCaE0EZC5brYbFiyuXiiN1Rl9zstgL8MKIvl3o5AP5LyiqgPiImIVNF9KGH3E+4RUQhP0yFI+GEBQMfXmZ5SXBs4/rDyikxed1pRt7xv80Z75lc8HZXal9Y29DbN9t20yHTp9AlULoAwLAX5cuFHvq4INNw/ZpJ44C3NCvTXN6ycVijhwQtxB/dcZgv+J80r/OVEHBmKRfyxcUZIfp90Na2oJxf7/deyo987Pp+3O6eH4Z8d3Vy+m0edOp2kpHQEA05Vbv5Inli8SROq9fcpyvMxT3JgosMf7E6t1x33R3g4kYLG14icFKdycNeX14nYiGEBTMTMCwl19AMK4dYPVUzu1KHx7bno5vk0fjRnSyl7n3wv8t+oFuXfS9/U2SgAAn/r1iidhTpyA3m87s00UcBaiC77p/dNnxVFjgbf08DohbQLegIEa6taH8VzCEgJ9JggLwQB5fNoNtv4B4HNIuj147vj018tBywb3e+f0senz1suCt9oCElNTW0N+WLBBH6jx1/lAqyNIXoDKRf511GA3uYX6IUMYo3aNEwI0N1l/AEDbdgoLNhKDIdMAeBIXzDotuaiJ19Iu502jkJv6LaQF7Jy+uWsbuvebnNqJLB+0rjgKS8ZeTBtGFQ3qKI/MgVgETgsKNwew7MhXsYUOnaMUKCsAzFDxLaWjKrd7SBbOn0KSiLeJMQEBydtTV0h9/+k4cqfPg6YdQ00b66nOm8OeTDqLrjuknjhoOU4LCjfOu7kYaMh3s/cbJhtf3ULyydWcVnf7NJJpeXCTOBASoM3L9aqsxwpv6npMdpqm3nkGvXnAUXX9IL+rTsqn4lwDJw5aQ3HBMf3HU8CD+6n4oLxv1qoLi+AY8wNuRyda1kk//EYC5b8ADvO+BabqJiLbBfQMeIDMwhJWIaBtwDt4kbQhWlZfRhXOn0YrgZcQAD5zdpgP9e+Ah4sgdW0rKae6arTRnzRaaumITzVq1iar3wgd3CNVPnXUY/eLg/epPuADD55ylqSQqz3IRt2TQ574BDxB/k713J0ULDe9Eb8B7EhMAQ2jZI1E6xATIYI+fOsREgnRIp5hmfsl2umDOVNoWfBkxwCO5Vj354ehTqGkj/1a7rqmto3mrNtPMlZawrLR+WvubKr2/q5XK5GWFaeTFw2hYn07iDB8EYMwYbd68uTijjurEIMRG/F7Tpk21iAmQgoIYr01MJHj9H4uGcVAVE4mb3g9HTICb3o9Xvt6ygS77bhZVRpIXnIAAFY4tbEUjhxwpjvSwZH0Rfb10A81cvZnmrd1KS4vKMmbWYY/mjemDK0+gbq3dNywRWhF7EOyxLiAXVTEBCPQQEwR9DqpiAnDtRIIVKioqcvQ/N3DjhvAAWzXxgBu4ofJ4QI6fqiDhnJ4GCgAyONGzE3RZsXFbAU58tG4V3bjw2+AdkgBfsfrx9O2RJ1LrPG/rwHHYVlJBXy9ZT5OWb6AfLKFZtLmYdtSk37I/w/frSC/98hjKa+TP81rEFPROOHELcIet3Kw9mGjYygkM2cV72ds3MUEvBoKCjFMVFK6YSMGCQqo6hismuPfS0lK7NZHMMbh/iIrbSQIvrlhM9y9ZELxDEqCFvk2a0fjDjhVH5qm2hOSbZRtp9E9raO66bbRkSwltrkid6fex5GaF6aETD6KrXXwtMRGIicXFxXZM4QgKV0zQk0FsRAyDTRW4YoKGNq7vZMNXMcGGDFMVFDdigsQgg1UFxY2YSKdI5ydzDH6XOyb6yOL59M+V/LeWAwJUaRLOosXHnS6OUoNlG7bTxz+upPFW72VV0Q5aU7yjwRtTGBga3LGl/T2SAg3fyZdigjiBeKQa7N2ICa6NuKVqw42YIA6jAR0bG30XE6CaGLdiAlQFxa2YAI7zISb4fVUGfT2a1u9M3VZaQPrTp3FT+urw48RRalK5s4ZG/bCSPvx+GS3dVkYbSiqo3ODQWJv8XLr3+APoV4f3EWf8B7EDYgI4McWtmADVGOxWTEBsx0GLmACVxHgRE6AiKF7EBOD6SEuyHgpXTLqN/5h2JnF0QIAXBjVrQZ8dcrQ4Sg9QJb5Zso5en72Epq3dSlvLq6ikivfejApYqPHc/bvQExceJc7oA3FDiglQjSlexATgb3H9RDa8iAmQ9we72sQERBtywquYANhIJCj4dy9iAlScX1io/l2TxcVFdPSsr8VRQIAentinD12wT29xlL5sKCqj175ZTKN+XEkbLHEptcTF7YSV/OwsOqFnB3rp4qMp26rTJogVE6ASU7yKCUgWg72KCUA6kAb7G/BOgdgPMQGJEuOHmAA4Bnac0uGHmIBkzueIyVNLF9Jflv8sjgIC/Ad95HUnnFl/kGFUVdfSp/OW0Uszf6Ift5VRZU0t1dQlFpd8qydy5cB96KGzDxNnzOEkJiBZTPFDTECiGOyHmADYCG3fvj3iFIj9EhMQL9j7JSYgng2c80NMQCLnc8Tktwu/o1fXrhBHAQH+E7bK6trjzxBHmc+3SzfQv6YspM+XrqOdlrDUoaVsKWqXgjx69oIj6TCrN9JQxBMTkCim+CUmQPYeYv/dLzEB9jCXUyD2U0yAkw0/xQQ42fBTTICT83GOM5vrph/n0Psb1oijgAD/6VPQhL464nhxlJxIpI4Wb51EvVo33FRiP0CdrLXEZGtJBbVslk/ZWVaLWfxbQ5FITIBTTAF+igmQ14r+HT/FxL66VCwkSBeZZANOhw0UAsBxOFhXHl8QAwL8oFWuekMQlO3cQqOXPERPzTiBnpl1Gr067xKateZ1Kq/eLn4jPUCdhIC0a2EFSQ1CgvqP99D8BNfEO23RMUUHUkS48UqVXVeNDpK6MBXsTdiIdj63AKwLFnIM0MyBubw33+dv+tT+adUeqq6toOKqdTR9zcv04pxz6dlZp9Mrcy+i8UsfoQ2lP9m/tzeCOp+s9e+FdBeUPa5oQlCQaW7fGldBCqNOGwDpgFO4zt9c69xNDAjwixv221/sqVFeE28YJkI7a8updOcmmr/5M3pn/g30729Opf/Mu5hGLbybft7yFdXUZfaCj4gnWKoEm87YCNJZUBwXety5cyf7I1HcZywI9nCOg/m4cJ+xyEIAW6oggznPWACeFXHS3n3CJ1SlqXUTEIAvRa89njeT6/35t9Ha0u/FEY9wKIsaN2pFTXLa0L4tj6KeLY+hZnnmP2trCgxzcWIKhIG7Qoabdba4z1gQ4xHrOSR6xhJ31WCuoHDFBEAh4RhVQeGKCeAKihsx4dJ1/MdUzRDRgAAO++Tm09SjThJHKkToqZknWnXFvwZOQXahJSgdqX2T/S1xOZo6Nhsg/iUz4AiKGzEBXEHhiglAQxiLN6rG4ERiEtcyAr3uYSI4A4nX2aVDJiEt3EzWSU0gJAEa6dGU1xjaWVvhq5CA8prttKFsAX274X16b8Gt9Mw3p9JbP1xHY5f+Hy3ZOolqauPP/Ex1ZEzRPeQlY7DO+IgY7JeNhBFWPtvQGYhNCQq2VBCUKiu9gZQE6KRlFq8R+NPmsWJPH9V1lbRpx8+0cPMY+nzxg/TvWafSf7+7nL5Y/BB9v+EjKq5YK34zPTAlKCaeoWCqrx82kkZXJAZBOBMEBTS0oGysCKYFB+jl6k7dxJ4a68t+FHtmKapYRYu3fkUTVzxBr353Kb0053z65Kf7aPbakbS+dD7VRXjPDLggJsR7Z0KFTBIUacMLSpHVpKDotAHHA93ODwhoKBBuDmjZpv5Akcpqf9+bcMuO6q20fPs0mrb6RXp3/s307KwR9MGCO2j6qpdoedEMqqyJ/zIxB8QBfBcJ03zxvMALUlB0N1JlDNYtKF5GopT/CoaQEJ2ZBkHRbQOORwEIBCUgE2mdrf42swTPNlKRmroqWlPyLc1a9wZ9suj39Pzss2jkd1fTpOVP2VOSiyvdDY2h/nMeOicD18GmW1AQH030UJAON2lh/YWJYC9t6Az2gaAEZCqDmrcQe2rU1tVQVW2ZOEp9tlQso+82fmi/rf/qt5fSC7PPpS+X/JUWbRknfiM5OgKyFCbdMQXBPlUFha0KpgQF6LTRUIKSGw4ELEAfzXJyxZ4aa4rnir30pKKmiH7aMpbGLPmL3ZNRhfsagwqmYoopQcH1OTZcRWuTPZRME5R2Bbz3ZAICOJzcrKXYU+PHzZ+JvfSnvLpI7CVHV503FVMQH3ULCmwg/qrGYNeRWgZ7nZmWqYJizlLA3gTCyimdeTO5OK35VOfr5f8We8nRWd9NxBRc35SgqMZgT1EahpAoncFeJkbnC5SmBSVLo/MD9l5yQmF22dpavlzspT8ri2dQRPEtrkyIKSYFBSSL855VAJkGdCcGdkz0UHTakARiEqCDI5kP3+sitVS2c7M4Sn9qIzVUvnObOEpObm6u1riFmKI7bpkSFBnnE6XF/myv2N8NrL8Sbw0WJ5AozN3mgAyAQzlgLRmZMBWQwfn5vOW4MW1QqrEKOTk5rHT0mvgZldbofSErYO/j8s496K99DhBHySmpXE//+faX4igzuHTgq9Qiv4s4SgxiFmIJt75zYwp+H7GRE7cAbKgKBH4P6cCDcw6IW5zeE/Ip3rs5Yfyj0wZgRHWTT/+RYU7Xc9rgTKdrxdvktUHsteJt+Buna8XbkAb5VqzT9Zw2rgO7NeIJaECACp0b5Yg9NaavflnsZQ6lVRvFXnJQ1xGDUN9lC191c4od8TbYkfHR6VrxNvQCnK7ntOF3kQ6uDfy+0/XibbABW07X8rX/hQyDQZ1AHOB43V1H2NE1ptoxmNEVoIFLuvQQe2qUVW8Re5nDd+s/FHvqoL7LoKoLKVY6n9MAxGDdNiAoTjZ8j8hIDGd4zA0I9HB+qggKfpdDa+YnVQMCkoGa0Jz5jgnn+UK6sGGHu7f5EehBIChqONnQEo2hXLoFBU6BoGDTBcQEdvwuYAXMVV0DApJxYEETsacGZj1tr1wjjjKHmoj7rz6iriPg626k6ogpsTSEoGjLtXhdIT+BU+B4nYIC52NL5HyIDodhTQvFXkCAPxzSmvdlw9q6auVptOkE0sUhNnaYHPUwISgmbMiOg74cszChjlJQdDofjk8kKFwxOap9R70ZH7DXkcMs//PWviP2MgvusvVODVHEFBOCkqyR6gcmekGy4xCGIZ0te6mOOm2YcH4yQeGQE86ifM0ODti7OKd1e7GnxtLtk8VegBPpFlMSYUJQEOftqcHIMN3BPhCU3RlQ0FTsBQR4AyW+dyFvTa5MWkbFC4liUiYJCuzojsF2LpkQFFu5LBs6HSOdrzMd8ZyPcxz6Md9WDgiIR4ds3vsloITxPkY6YYV+secPiCkg3QUF14cdnXF+Vw6ZCMQmHGNCGP1wfp/84F2TAH84rX1HsadGbaQ6Y3smWWHeM1qVRiDqOzAhKDptSEHR1UPZ7c5hCEZ0Z5puG1IYTTjfraCc1bFLsHpwgC+0yuMtF7Ri2wyxl3lkhfi9NBVQ30EmCAriow5BCdXU1OwhzRiSwhpYnESl4lpeyKyysjJWpuF3uevu7Nixw05Ps2bNxFk1Bk0aTeurg7HrAG+8PeBgOrqdeu/kze+vpc3li8VRZtGucW+6cMAz4ig5O3fuZDUIERNLS0uNxRSOHe5aXojxiPUcG4nW8gpZN+zYz0Mml5eXi6Pk4Mtl3K+XQSHhGFUgVo0b84aHoPYQFNmySAYKC1cUkIVwfkFBAUuA7134Lb28dqU4CgjggzCw8rgR1IhR7l799hIqrlwnjjKL47rfSf3bnyaOkoMYh3rLAbEE9V0O2ycDwbp58+biSA3EFNwbpt2qgrjFiT+wAUGJt3CjE4i/8ToNcS0jwzg9DTfAhu73UCScTOaCwoKCBZXn0K8pr4AFBMSSb5VrjpCAiupisZd5dGo+QOypodrIjAb1HX/ndohbBRlTdMZHmQ6/bCQshSaWRUEA1i0ossDoFBTAUXhwXoeulG05NCDALWe24r35HonU0s7aHeIo88gKm1mRG6163YICTMRHv2wkja6BoKgTZ8QwLjlWQRzUJOidBLinf8vWYk+N4sr1Yi/zwLTgJjnq+cGtr7Hg77HpbqSmi6Ao5YIpQTExrIauHTYd4PrcAjqifWexFxDApzlz0dBJK54Ue5lHi/yuFA6p9xRkA9MLJhqpIB0ERTkHTAiKCRsYh4TjdQkKd6jr7HYd7YeoAQFuOIE5zLW5fKnYyzxO6/WA2FPDDzEBJgUllYfVWKmXwV5XIAawoVuBdQoKZsFxwDsCBzYOllYJ4JNlld/mzM9e19S5X6I91SloxFtVAoHTL0wJCmJXqgoKO+Uy2OsUFK/dLRV0CYqbcdhLu+4r9gIC1DmO/bwtkrEP3/Ozm1NuNq9Rxh1FSIYUFJ2xEcCOKUHhpMWVjEJQkBgTgqJT6XUICsQE1+VwbofOwayuADanMT/Tm8m9kosPeEnsqeGm0acCAr2uUQ8J7t2UoHDivOtILQ3pBDbgmHQTFLzQxAFL0l/Voas4CghQA8NcHKaseE7sZR4FjXgfnENs0YWuUY9oUlFQPEVpGNLdezApKH7ZcNPqOcvqnQQEcDiE+dLrgi1fiL3MYli3W6xgx6u7iCs6g71JQdEZG4GMwcnS4vkupCGdSMfrdr5fNuBkXI/DwBatad9c3oJ9AXsvYaucdmnCWfYH70T4M3splcgK59ABHc4SR+rgeYnuYG9KULDpjsFIS7IeSmjHjh2OzWjcHOcGYYj7QMuEDSSe0xXE72JGFrd3EZvR2OdOcx67aT396vtvxFFAQHw6ZufQnGHDxVFy8Dnbp2eenHHffT+yy7U0qNOF4kgNtObRQAVu6js3piDGwR7scoiNKYnA7yENMl2qcGMwfjfejNVQUVGRYy5yF27EgmFQLyRG1TEItpyFG/HgH3aAassfiecs3AiHY2FIWQBUwUJuqo6PR7Vlu++kL6isVt94bkBm8Oeefemq7vuJo+RU11bQM7PUF0BMB/Kym9E1Q0aJI3egjssFbVWDPeo5Z+FGxMPi4mI73iGGqcJduBE28NiBYyPRwo1OyNWMnWKjr30jOW1YJ1JEOC0DLihUsKM7LbFgwb7H9x8ojgIC4tOxoInYU2PZ1mliL1MI0em9/iz2vYH6DoHgBG436I6PSANscEdEuEBInNLhe+6ZFBSdzof6NoSgHN+mvb0SbEBAIrrk8F5WnLjyCbGXGXRuOpA6NusvjryDum5CUGBHZ0MYNJSgaMk5GNKdGDgFjtctKGi16HZ+NHlZ2fSv/Q8URwEBe4LB1D7NOFNhI1RVWyb205+CRi3p7L7/FEf+YUJQEFOw6Y4peK5hWlC05ZopddQtKHIc1aSgnNC2IxUyF/AL2HvIC4Upm1Hmq2v9fdO7IQmHsunUXg9YQV9PnZeCgk0XiCkQFJ2jHrh/04KiLwpbmBQUnc5HAQOmBAVL04888FBxFBCwO1cyV5quruN9HjuVOaLLr6ljU/+Gt5wwMeoBQcGmW1BMPHaQghLWbciUoCDQ6xYUE91TycDCVtQnj/eJ4oC9g2OYL7iWVm4Ue+lN/7an06CO54sjvZgSFGlHJ7BhQlDC0d0UXZhSR92BXnZPdTsf4KW0Dw89OliePmAPCpjlb9Ly9P+GSc+WR9Nx+9whjsyAmIIGqs5GKuIJrq8zdsGGCUGxS6UJQTFlQ3cvCIIC55sQlMJGOXRJu2CZlYDd6c36ZEGENpT/JPbTkx4tjrCfkzQECMImRj1AugvKroiYKYJiYlgNTtHdYpH8pf8gdks0IHPB4o5NrEaGKtV16f3wvU/rk2hEb3/eJ3EL4pbuUQ/EFN2jHlJQdKVltzs3kWkmeg8mhtXgFDhet6BgafpJhx6jd6ZEQNowvClvddyK6u1iL73AbK1DO19OJ/X8rTjTsJhoCJsY9YCgwI6OOB+qqqraY+0TBEqusCADuJmApVE4DuLawP1jaRSOeMGZnHRLG0iHirBgiRo3heWS2VNo/Pat4ihgb+WjwUPpkBatxVFySqrW02vf/orqImrLD6UCjbLy6fReD1GX5oPEGXcgviBwJoJb31HPS0tLtcYUxAcs8YK/UYkpEs7v4/fkmmSceJQoBoesizkupIUFFSsq1KcUctfyAuhBcL79AQdy1vICEEWkAwKpAjKKs5YXwLVhA7aSgcLYpAlvKQzJgElf0JbqzP3AUUBiOufk0qyjTxFH6mBdrpfnXpgWLy62yOtMF/T/N+Vmu6sjEtRHlUVh3dRHbkxB4Oas5QVwbYghYqQq3LW8ILTII87iuYnW8oprGYZ0D0cBjmK7AZmrq1snwbXhfJVeFgoip4BEM/Xw49kfRArIDFBRxx12XP0BE7T0rz34YxrS8WIrsKkHG5OEQ1l00j6/o0sPfM2zkKAuxlvZ1g9Q31MpprgFsRE2/IrzcUsW1NTUswfdNtD5wsbpMroBQqGSFrlKKZdmOTl0e/C9+L2SaUNPoOaW/71wRNer6aZDxlDr/NQqQ/u1HEY3HPIF9Wl7ojjjDQxDIRjrrO8ypnB6Am5QjSlukXHeD0FJmhO6EwNgQ3cvCC0JZFwqOD/OyKISd+7Xjw5r3lIcBewN3NGpO3XL9+cF1pDVA7h44At07ZCPqWV+N3G2YeheeDhdd/AnNLzX/fYyKX6A+id/QlC81LVkIKYAnT0UYCIG+yEoSpE1XRKTDOl83YKC3layAualkL8zeCh1zysQRwGZTAurHN2l4bMEGEq6ZOAr9OvBH9CAtmeKs/qBaAzt+mv7OyRn9HmYcrL0rfKAuGUipmRCDwUgBud46P3GfQCPhz/yQ1QSJAaJcsKvB/BwPs47gX/jPoCHs0tKSsRRPXI80gkUCu4DeIAP00RnpewFxbPj9WNa23ZW0RFTx1JxnOsHpD+NrXK6aNhpRp6T4SH9topVNG/9O/Tz1q/EWX/IDudSvzbDaWCHc6hpTlv7U7u6QHzC7MpoEsUt/Bv3ATzqOep7NKjrOO8UTlHPuQ/gAeKWbABLEqWF+wAeIP7GxttENhI9gGeJCYhnyM/ZXPFs+CUmIJ4Nv8QEoBBhiy0QwI8vM84r2koj5k6lWmcXBqQxeVY5nD30RGqVy6tTflBTt5PKdm6ibeUrafn26bRm+zwq3rle/GtyWuZ1oy6FQ6hH4WHUPL8jNWnU2hIQvT0ECep0rJiAeI1UxAE/xASgkSp7KtH4KSa4VrxGql9iAuLFR1/FBDgZ8lNMgJPz/RQT4JQOP8UESOfGFgo/xAR8sm4VXbtgXoZ92XvvppFVLkYffDT1ZX2zRC/VtZVUVVtqC01tXZX9U5Jt9TTQ+8CQVW52U3tmVkMRT0yAU0zxU0yAk6D4KSYgnqD4KSbAKT4mEhNXA30wAEM6QQLj3bRfmEiHLAxcJ6syomNXum/fPuIoIN1BKXl5wMEpJSSgUVYeNclpQ4V5nahVwT7UrkmfXRuOm1vn8xsVNqiQJEPGlDjtZ1+Qz0v9aCjGA/ePuJLsuaxXuPHRdYQLBEUd3YJyQ4/edGe3nuIoIJ15tM8BdELbDuKIB6bExhtNCKgHMQUPmXUKCmIKAr1OG7g2Nl0xRcKJj57uJJMERbcNCApaK7paLHft149u7LKPOApIR/62X3+6sHMPccRDvrsEMXEaGgn4H6YExURMAakiKJ7vQhrS6RgT3VMTooUuMByvS1Du6z2Abg4EJS35W6/+dFk3dy8T4m1vbAguKF8660mmYEpQdMdGk4KSbFgtZLVkHFOKDOBkAh6+c5cw4NqA8xGQOX/DtSEVmNu64/w+HA/HOM3IgNB4mesNnli6kP62/GdxFJDKoHr+1WoEXOqyEYByF722EsoPGkWo/ABlDWVaVwNGN0gf0qJah7n1HXkFG5y/4dpwG1M4dqSfpd9V4diQsQlC7ESoqKjI8Urc2VnoXiMhnMTAkZzZWUiEXHxS1THIZM7sLFwXY8/4O6dgHw/u7CzMBoGgOOUXN1+ceH3VMrr75x+CWV4pTJ5VXp7oO4jOYH6GNxmYBYSyFV3pEQRQn1Gu0wXcvxy2Uw14CKic2Vmof3KIUDWmoJ5zZmfh3qVPOPGROzsrUUyJR6LZWU5gphzS7yQovpYsJEKqsC7gcGSwzkoh1RqO0Um8/JKVyAuXdN2HXhswJFgYMkUpzG5Ebxx4mO9CAmRljw4SGDVAQOOsdtvQoK7rHhoGsIPr644psKMzPjr53W+kDad0+J57JgQFNnQLChzfkIICMXFSfw4ntOtEUw87llpbgSsgdeiWl0+fDjmKjmjVVpzRg1NgwZAYet5oYaLsoYynOhAU3fUQNnQLCmJKJggKcIpbWnLOpKAg83RhSlBQkJ3yCy8UeW1FdmvclGYedRL1KfC2rHeAPwxq2pwmWAK/bxPOd9zdE68VifoDQcHQCHorqS4qJmKKKUGJV9/9xJSgRD/f1ZZrmSYoOgsYrh+vgKEViXvwQkFWNk04/Dg6rWVbCga9Go4bO/egzw4dRgWGe4rJ6iJ6K157wclAGfcqWJkiKMgH1GndjVQTgoKyI23oyzELU843ISgmClg8QYm3rAIH3P+Lgw6n1/oNpnyN6QjYkyaWmI8eciTd1+cAccY8ftdFKQ5OG8oqyjICDXrX6P1g8/ocEJiMKTrrO/IIeZXugoK4gudxsBE20RUy4XzY0CkosIHr63S+rIjxBMUPTujQmX4edhr1CJawN0K3nDz64eiTaWBhK3Gm4fCzLmJoTIpE7IZ/Q48aPxHMUK79BOkwEbdMNFKRNzpFC5gQFNgIm+gKmRAUpMOEaAGdgiJbdU5pQT76QbZVeKcdeSLd061nMNtLE8jX53sPpBmWkORZPRMv+BmM45UtPzFRF03FLdR13YKC65sQFN0+sVMQCIo6UlB0Oh/Bw0Slv22/frT4mFOpawMsc57JtLXEY/XxZ9CILt3FGfegTCPg+IWpsmWqvpuKWzoFBf4wISiwo7MhvOvu5biXTkwUMNjQnQ44BY7XLSgIIrrHVPMtf0w78iR6ut9Beh+g7QXkWgHho4GH0XfHnubLRAf5zMFvAkHhARu666EJQYHfselKy647R0IyRVBMtVh0C4pskeouyBiSOadDV/tZylXtu4izARxu6LIPLRx2Kh3Spp044w08b4CY6MKkoJgI9pkQt6Sg6OwFIabA9zrSEiovL99tQBYJkQWN4yCpeirg9xCEUQg461BxbAAEYVRKzrIwXBtIB2ap5ObmsgoBZ+gC10VeoQDEihfO+S026yrK6eYf59C04m3iTEA8zmrZlv5k9era+DhUCBFB+YCv5dRLTqOFW4ZhC2WMU464NnB9rrBwbOD3cP9oEGdCTIHfkQ5OTOHYkf6ALb/87vilRRQuJIbTMuKu5QWzCMIcGyiI3DWrYAMFTDV4I3O5X1rE9ZEOCLAq3LW8ICawgQIQCwpdQYG/s7NQKBaWbqd7f/qeZhQX1Z8M2MXwwtZ0//4DqXtjvS+Domxhc/J7PJo2bcoKELi2tKMKyhs3aKP8cqYHo4GWn58vjpIjYwrS4RDWHEFjjPulRaQDm2pMQT3nfmkxUX2PB3ctLzc22F9alDeks1uHDMb1ddoAUt05mcwFNlB4ORWYCxwo8ywWVB68zaxagVSAzPVtWkjvDzmKxh5yDJ3Qsk39P+zl/KJtR3uJmpeHDNUuJEAGbJ31RF5bpw2U3Xjl1y9wfdmLw74upE90xhSkA/VZZ34liiluiJsbMGJqTFW3DTkWqdP5cDxaKjoFBTbi+QT5iLn9nFaGCmEr3/o3K6T/DjqCZhx+HN3Rdd+97i36ZqEw3dl9P/rmiOPp0QMOpn2a8HquXpF+11m2gIn6bsqGzroOZK9Ed0xJJ58kzAkkxkSwNykoOlssJgXFqasJ25j9g66rDrDO12969aefjxlOz/YfTAMLzKwv1VAc1rwFvWSl87thp9JdPftSlwZc30yWLZ31JFHZ8gtTMQXp0C2+mSIofvldKRfgfJ0FDASCog5syAfyseDf8IBQx5RSSZNGOXRm+840+ojjaOKhw+ie7r2oR6762HYq07egMf3BEo4Zhx1HHx58NJ1qpTNPc1BSBb7VXU8SlS0/CQRFHZN+9xLnlXPAqyEVTIgWnA/Hp7uggEQFDP7Cv+umd9PmdFvP/WnaUSfR6IOPot/26E2DmjRPm6GwRlY5OKx5S7rXFpBjafwRJ9AN3fejboZW9XUD/NqQZcsvTNjQ3aoHqOuIJ7qH1kzkl5c47zibC2BWhNPMCxiCwVi4s7kAruPUgo5nA+e5s7ngaKd1reAUp2CLAsGdzQWwJlFsVkrRQoGOhTubC8hvUMQSLy2YpaK78MWjqKqSJm7dRNOKttDs4iJaVF6WEl99xIuF+zduSoObt6AjW7ShoS3bUFPGrCQvuG0p41mYUxmK53fubC6Arw06zeaKZ4M7mwtg+BW95lji2eDO5gK4DupJLPFiCmxzZ3OhnqO+x4I8R7yJjQOo59zZXMBpgVcpWk7lgTubCyD+xou1TucTzeZiiwlwMuSnmAAnGzjnl5gAOD/WKX6KCYjnfD/FBDhVyIYUk1h21FTTrKKtNGf7Vlq4o5SWVpTTxsoKKqp1To8fFGZlU6f8AupZ0Jj6Nm5GQwpb0iBr87pWlhtkfSosLBRn1IknJsDJ736KCXCy4aeYACcbfooJcLKBc36JCXASFD/FBMSLKX6KCXDKL9/FBMQGe7/FBMQmxm8xAbE2/BYTgGvi36L/3W8xAbFpSSUxicd6q8fy444yWl1eSlus8rbU6tFUWGkot0SmuK6WqqytxqFCQRDw5n6zcBblWxW4WU4udcluRF2tXkfvgibUo3ETapXX8M9x4A+Ucel7v8XEKbD4LSYgtmz5LSYg1obfYgJibeDYTzEBuCb8IX3ut5gAKRrR/+63mIDY/NIiJiBaUHSICYhOjA4xAdHp0CEmINb5OsQEROdXOohJpgI/I3DiJzZZNvwWE4ByBPGQftchJiC6bOkQExBdF3WICYi2gTT5LSYA14UN+EaHmADEFFxblg0dYgKi/Z5ITHiWY8BNcAsUFyRCd0BEOuJlkF/IQsF1NhcULG4gCfAPKSIIBChX8Ies9LpAcINd3WUrU+qiCRvIKxMxBb5PFb97vgu0ZnQXMJOFOFHvwitwvs6gAmRgCQTFLMh39OQhIrHv+ZgQePgcZJKg6KyLpgRFd15Jv+uOKyppCVmZ6ugx/DE2VdAd5ToflQxOVQW9IFRKjh38bmzlTgQKGDbpJFWSDQlGgzRgSFB2T1WBcKveFwoXfMJNB/5Od0s6k0D5QhlONkQE4HcM3XB9wvU7hqC4ZQtp4PwNhju4NkzEFOSTii8kJmIKgjDscP0OG6r3hTqL/GpIv4eKiooc75b7DATBlFtYELQ5z0CQcGQwEsPJZM4zEDhcjrlynM99BoIWLH6f40juMxCMhyINHBsokAh4AYlBvmI4i/sMD2PtKJMcn3Cfgcjyy6mL3GcgSDuuz0kH9xkI6roUUtX6jvrBeQaCNMhnW6o2UG85z0BwXVnfOTGF+wwEz9YAxyeJnoE4gWdruL6TDV/7xDCgu1sH56NicQI3F+lwjiO5oIDBDidIcDFhY28D5Q+BQT4T4WLK77rrogkbAHmlsx4CpAM2dMYU5BfQHVOQloaKKb6mDIZQ2QJBUaOhnR+gDlpk27dvt1v9smy4xYRPZNnSXRd12zCZDt2CIsuN7rrYUD7REikDQeEBx+gOLCZ8kmlgmAXDUhARzji8CqYERbffTZUtEzZMCQryTLegNIRPtEVJU4kJBEUN5JEOn8j3kVBB0h34Gj2QaAHRWbZMCArAcJzuuggbmTA7KhAUHtE2tEZIGDJRwDJFUEwEFr8LGCoFxAQBGBuGgfxuxZsAQQTPQXDvUhhxDuVKp99hS3dgQRp0C4q0EQiKGqYEBWkxJShh3YZMFTDdTjEhKChc6SgoEtw/ri2fL+AnZpjImT/piBSUdA8sJgQFmKrvum2YFBTdMcWEoMDvYRPON1GIdQXIaOB8OF6383UHFmAiv/DMAXmFn+ixQGDQe+G8k6OKrDQoa7g+BMwvTAUWoFtQ4HfdZctUTMkUQcH1dccU2NFZ3+004H8mHGMieJmyAcfrdL5ssaS7oDiVLVmwOeAa6OFEb3J6rhxewzs1OI+fEBOkzU8QWOAPnYEFNoBuv8u06CSTBMWEP3QLCuqcbkHZdfemBCUT1vKSgqIzsJgSFBRk3fnltWzJXkf0JisH/g1bpvgdaQO6/Y68MyEoqV62VDBRtuB3E4ICO7rSstudm3AMhjwywfkmBUVnAZOBOqj0aiCvTAg80O13E4JiwieBoKij0++h0tLSPeZ0ysRwehHIbGwqIEFwDDKPs2QLfh8FRxVkGH4fS0WognuD4KmCvJI2OMLCeW4AG0i7XEdIFbkUhQry3mGLUzHd+B33xFmyhet3pAH3xPE77okzCw028Pvc5cs5fodPZB2BPVU4fpegXHH8Dn/g3lTB/cP/HL9zyhZAGvD7nCVb3Pgdaecso+MmpiAdXL/DBmypgLIl6yNHJBP53fF7JkgIHmByCgt3LS84EbN9OIUFhZ27FhLG0GFDNZPhPO73TGQ6OBWYu5YXCgoKPccn3LW8UFAQ7Dg2uGt5IY/gE44NiCi3QSB9oup3BCKsgcVBpoPjd+73TNysgcVdywvlChunLnLX8nLjd+5aXm78jvrBbRBwYwrqOfd7JvA76iOnbHHX8oLPUd85NhKt5eVoGRmMgsK5MS64NsSHU+jdgEIPG5zAzQU2kB6d+YWKhXTotIFCgk233xEgdPodvpY2dPodFQvX15lfSAeur9OG7PHq9AnuX5ZhXcAX3Na8G2R911m2TPkdsd4vG3GvIlVXp/NhA5tuG2gNwYZO58OG7sCCFgRs6M4vE+kI/K6OKb+b8IkJG8gvTo/cDfA7fK6zbMkeg86yhfwCfvgk4V2aqPSZFliATufDBtKj2wbySWeFzDS/4/q6fQJM1EWd6TDtd53ABvJKt6Dg+ib87tVG0lJjwvmwgU1nIY4uYLqdD3RXSKA7eMFOJgmKTmDDhKAgPSbKlu76bsLvsKPb77ABf+iMKfA7MOETL/VdqVSacr7XxCQD15eBJVMERXcBw6ZbULDpLlvwu850ABOCYtLvum2YiCkmyhZsmBAU3fmFdMj46AblUi+dbyLYmxIUnSC/gO7Agk13AdNtQ1bIdC9bADYQVHQ3Vkz4BJuJsqXb76Zs6BYU2IAtnTFFpsWN31l3BSOmgn0mBBbkl+6Wqhfnq4LrYwv8rgZs6A4spvwOO4HfkyNtmBAUoDumuPE7+44yyfmYK67TBkA6MkFQMsnvum0A2MgUQUFagrKlhvS7TkwIivQ7J79c3Y10DOeNWS6wYSLYmxSUdA8spvzOLcRcTJUtpCMTBEXa0O2TTIkpSIdOfwATgiJ9oppfru8EhvCGpk7nAzjfhA0TBSxTBAV+1x1YMsnvuluq0u+6A4vu/DJRtoApv2eKoKjml+e7MCEomSJassKnu6AAExXSlN9NBBbdNuB3bLqFC/mVCWUrU/yOuo54YsLvydISloUwdgOyJZ1skwXM6TqJNhM2sDldz2mTNoDTdRJtwOmasZsM9Nh3uk6iTdUGwO+7yS+n68XbZOvL6TrJNqfrOW0m/B7dinS6TqLN6XpOG2xIYXS6TqLN6XpOG8BPBBan6yTaYq+VaEMZRmBxuk6yzel6TpsMxE7XSLY5Xc9pM1F+ZTqA03USbU7Xc9qiG6lO10m0gdjrxdtk7HK6DrZQUVFR/RVj4C7c6GbRMFQuzsKNCCzcBSiRyZyFG5Ep+Cog0oF9VbgLN8IG0sGxwV24EXkFv3BsYE0gzsKNWIASG8fv3IUb3fgdhZ6zcCPuH4sEcn3CXbgRH/Dili3uwo1IB3p1HBvchRvhc9R3jg3uwo1IA3fhUdQPzsKNuLZcTFMV1HPOwo3IIzcxhbtwI3cBSpBo4UYn4I94qxP71jeSwURndwsJwMapWFxwfaQFNjjiwAWFWLYmdCFt6PQJ8gpp0JkOWQl1+92UT3TnVyaVLVN+N1HfTfjdlA0nv/taEkwIiixgOm1kWgEDOvMLNnB9nekwFVhgR7ffYcOE3+ET3X7XnQ6TfjdRhk3YwPV1+j2eDd8twhDQnRgUAJ02cH1UFlOBpSGc7ycysJjwu+7AYsrvyCudNpAOYMLvOn1iyu8mfGLKBq6v2+8g2oYWa0gM0JkYOD+TAgsw4XzdlR7oTAdsYMsEv8MG8kp3fgHdNpBnJmzo9jvsIB26/G7CBnAK9n4T6xNtlkw6n/NQmgtsmBIUXF+387Hp9IlJv+u2YUpQTPgd6dFtA6R7+ZVlC+nQ5XcTNgBs6PY7ro8NPglnSqXPBEGBDaDb+aYqZKaULRN+1y0oSAs2nfklg5fuumiqbOkWFPhdt6DADjadZUv6PSwriy6kY0xUet2FWL7zoNP5yCsQCEpyTJYt3X43JSiZUhdN2EBe6fQHQDpMCArQLSj21TPF+Qj2Om2ATBIU+CQTgr0JGyb8Dn8EgqJOJsQtABu6BUXGFJ1+31VqTQXiTLGhO7CYEBSAgmwiEGdCpUc6dFd6pCNTBMWE303Vd902TAkK8kyX33crsZniGFM2AkFRA3mUKX7XnVcgUwQF4C123T7JpDXc0llQwrjx6A0JQqbBIGcDsdeKt0kbwOla8TbgdD2nDTZ0r4UEG1JQnK6TaAOx13Pa8Lv4iUIWe41km6oNbPh9pCX2Gsk2jg1TPskEG6j08Lkbvztdz2mTuPG70/WcNtx/dCB2ulaizemasRtsRAuK03USbU7XdNrgd53pwCYFHvtO10m0xV4r3obfBb7Xd+sX6n8jCjgG67xw4K7lBcfAhmx9q4DCwlnLC0mTa2CpgoLJWcsLuFlni7uWl5v1lrhreWEdL6xTxLHBXcsL+YT84tjgruXlxu+oWJy1vIAbv3PX8oLf4RcO3LW83KyzxV3LC4KC+s6xwV3LC7EEPuHEFNQPzlpeADaQHlVQzzlreQE3ZYu7lhfqOnzPIdFaXo6WZdDmBDsuKOy6beDaKCiciuUGaUNnWlB54RedNhAc0CDgFEguyCfkl26/o2zpTAdAOmAj3f2OoI1Npw0EbaRFpw34QvpEJybquwkbsiHolw3HnglASwUtYai8ijpyeyYA14cdVRvcngnAtbFSKwqYSksVv8ftmYDi4mLb+YlaE2htrF+/3t5PFlA7deq0R0sZfw9UW0WwwemZALk6L/JNpYXH7ZkAtLTlSsMqfuf2TADSIHvXKumA77g9E7B9+3Y7j1VbkdyeCUD5RVlRtcHtmUydMoUW/bTIvnaivMI9nHfB+fY+t2cC4HPUedV0qPZMcK0KqwcHUDdQhoFTWrIsX0Xft5ueCeyVlJTYsUKlDCPfuD0TIG2o5he3ZwJkbxHpUKkniXomCcUEGwqlSoa5FRMkRtWGWzGBU+BQbMkyzIuY4P4TpWXChAl09x13iqPEPP/iC3TcCSeIo3pk9xoVADaSpcWtmKDSq9pwKyYYvkFeIZ+S2XArJrIRIQNxInAvbsUEqAqKWzHBtVXrCVdM7rz9dvrow1HiKD7Ix1nz5tr7bsUE5Us1r1TFZIPVQDvy8CPEUWIuv+IKuunWW8SRezFBfUd+qAgKfs+tmODaqvnlVkwQh1XreyIxSWoZicANcm+Sg7SBTNcFHIFNZzqArPQ60wJB0e0T2JCVRRfIK902ZEXnBFc3mPC7ibpoApQt5FW6pwPlCuUL6dBd303EFFzfiw0lb5qo9CYqilR23YHFlPN155cpv8OGTp+YEBRcH2nR7XcT9cQEJsqvCUwKim4bsmy5taHsSROVXtrQWcBMtVRNCQqur9OGCZ/ABkh3v5sSlEwJxEgH0F0XdWNKUFC2TNlwU7ZYf2Gi0sOG7uBlSlBMBBYvzlfFhE8yxe8mBUV3fpnAVF3UTbSg6ETWd90xxU3ZYqcchoBO55uwkUmBxa3zOUgbuv2uOx2B31MPk4Ki0x9IA9KCh9k6gd9NCArglC1XpdCE8zPFBq5vKrAA3YKC9Oi2gXzSWSEzze+4fqYIiu50mPS7TmADeaWzbMEnuL5qWlx7Tjo/3Ss9bGDTWYhlAdNdUZAOoNOOCRvIK9jJJEHRCWyYEhQTZUt3fpnwO9KiOx2wAX/obqwAlbR4KhlIjO7KYqrSY9MZvGQB0420ke6VHjaw6RYUbLrLFuqIznQAk4Jiwu+ZEFNMlC3YMCEoKvnlueTJBOlMjCnnI9N0VkbYMAHyC+gWFFmQdSFt6CxbsvyaKFumBEV3XTSRX9jSvfyaKlsyHSZicKL8ChUXFztGOLzdynnDFcbwVjMHVC7OW/OwIZdfUQUZzH1rHung2ACwkcyZX375Jd103fXiKDGPP/kEHT1smDiqB28Dcwom3mzlLuTG9TsCmFy+QhW8Qct5ax6FGD7BT1VQ6DlvzePaKFtIDwfO29MoH0gH1wbSwQl6ctkSVe77/e/p808/E0fxwf0vWrrE3nfjdzcxBTaS+X3Txo10yokniaPEXHPttXTXPXeLI3d+58YU/D7eNOfGFK7fkQ453VoVxF9OIydRTAkjgU6b/Y9WQlQ3OfcdznG6ntOG3429TqINv48NznG6ntPGtQFQsLDvdL14W+x1nDbctypO+Yi/d7puvA2Ox8/Y6yTauDbgdwic07XibVyfRFd0p+s5bankd7khb1PRJ8grVaQNN+lw43ek3akuxG6qxOYlri3tOF033hZ9jWQb0F22sMkY7HSteJufZUtd9hSQhnQCp8hCqQtZwHSnxQTwie7hFQSWeOv1+IWs8Nh0gQphwu+Z4hMT6ZAxJZHfmxcW0iOPP2Zvjz/1JD37wvNxt7PPPUf81f/YFQwNxBQT+dVQZcv33DORGDheKqouZGsoUwRFd2BBAdPtd1RG+FynoMDv2Ew0ikxU+kwIXskEBUOmxwwbZm/Djj2WTjjxxLhbz/32E3+1O/A50Ol3k4Kiu/w6lS0t0dhEAYNTTAiKicBigkwJLFJQdPodjQjdfs+kwAIbJnpBSIfOhkQm+R02TPg92oa2GikDi07nmxAUEwXMFCYqpAkbmeJ3k4FFtw3ZWNFdtuBznTYCQeEh02HXR93ODwJLaoH80l0hZSEO/J6c6MCiM79MNSRMlK1AUNQxURdl2bLFRLchXF9npUeGgXQPLNHo9ImJCikDi26/6y6/JgOLbp+YyC9T6dBdtkz6XXewN+F3u74j02BEt2NM2AAmCphOGxLYSPcCBhtAZ37JwKIzHaYCC+zoDiyyLur2O3yi2++602HS7ybKsG4btrdlAdPtfODVBjJfOiB6wznYwE+d6ZC2dNoAsOM1sETnj9OG1gTSovK7nA3XjL6uibKl24ZMV3RgkemMTrv8vehNFfwu0mJCUJBXOm34Vd8TIf2uM9hLf5oWFFl25L/JLfo8l1gbfhMqKiradVfS8TDK/aY73r7ElgwkBHZQEDADJNmbpNOmTqVPPv6Epk6ZQlu3bNmVuXZmRmUK9nBtef3BBw+hI486ik497TTq1KlT/S8pgGvj28vJiE4HwDeekzlpzJgxdOO114mjxDz2xOP2G/AoxLCB9HK/6X7wQYOopLRUHBnCuk+ZN/jZqlUrOuLIoXTK8OE0eMgQOy14C5rzdrr8Znwyossv8o3zTXfcF761nohxX46liV99RbNnz6YS8c1/uVmJFb9VXxbtn9a52K1d+/bUoUMHe2vf0drad6CO1k95Xv5dtN+533SX34xPBq6J69/7u9/RF599Ls7GB/e1ePkyex/+gF+SEe0T1W+6S+Q345MRbQP1g7MqARpUZWVl4ig+sjwjX/GT80135DG+GR+P8h076KsJE2j69On07dx5ZMVk+2+QHhAtG7FxrkWLFnTQoEE08MADqVef3tSrV6+Eq0vIv8O1YSPRN92dkN+Md2I3MQHyRlHhdYgJkI7Bz1gxWTB/Pj38p4dovvWz3CpIdQqVIhlIB5x/2RVX0FW/vjphxUQmq4gJQBpwLRRIHWJy1DHH7LKBQoy84ojJoAMGKqfFBEgHROTY44+jv/ztb8rlS1VMgCxXwKuYfDl6DD33zDO0afNmqrLKtqzcOkEe4f7tDftWeuDzcFaY8nLzaJ9996VXX/+v+G1npJhgmZSVK1eKs/FZt2ZtwmAXTf8DBtg/ZTDiEO2bWJC2t959RxzVoyom27Zto1tvvtneT2QDnHvueXTpZb8SR+piAuS1kXYvYoI0vfj8C/Tpxx/btlG+uXkZD9wjygu2RlYML7Tu89DDDqMhhxxMAwcOpNZt2uyWDtRH38TEKnR7pAK/DGGAUVW46+4g83Bjkkf+/nf6zGodFW/f7lvGOoF77NGjB933x/upX//+4uz/QJq56+6gQMAxyfJrgtX6uOu228VRYp574Xkr6B5v7+O6KIDwSzIb0Rx71NHKQcI0SEd7qzX+0MN/pkFWjyURKOyctbwAyhanHKFyoWJt3LiRrr/mWlq6dClVKAqYaeZ+/53Yc0au6XT2iDPsRlk6kGs1LKZ/M1Mc1aMaUzasX09HDz1SHCXmcqtBecvtt4mjevHm9JZQbpP1YGPB3yCmvPP22/T0k0/ZjZNaS8QaAogMGnHvfvA+dercmR1T8LfxGrRWmROtoKhNdkfRukGQVNnExZQ36cR//uMfdNThR9Abr79B20X3TidoBSxatIguu+RSOv+cc+inhQt3SwfsO91vvA2OkMNP0deJt6mC60bbQIBAxXK6ZrwtlUE+r7eCwNVXXkXnnnU2lZaUOqYBG9cn2GSDwOl6Thvu5fThp9LRRwylH3/4IWWFBDjdf/Qmy046AR/HpoPjdw5ubWBD3qLHi5/R10m0vfrKf+jQwUPovt/93i5nDSUkQPbEEOPdxJTouLTHJmzsAf4QhpDZOkCFRct55H9f362HYgqkb+mSpXTpxb+ku++6y1M6kcFwUjzF9guIu24bDcHyZcvo1JNPpu++/Vac8Y70Jwp5ItADv+v2O2j4iSfRz1YjQ1d5D8gsED/QIE7EqlWr6Jwzz6THH33Ufg6SSuSJ3hjS4dfqBQlrGrpAfgsKrvV/f/0rnX3GmbRhwwZxtuFAgJ4wbjydY92PV4ebEBQTNhoCNCiuuvwKmjRxojjjHdmSwubEwgUL7HKIh+oBARwQxxIJyisvvUTnn3MurVq5SpxJLaKH9hDn/RCUpP1DPwUF17rh2uvoheeeT7kW4OrVq+m0k0+hxYsXizPuQLBP1mLxSqYKCrjztttp/o8/iiPvoLGA3kmsoGD20uWX/oo2b9okzgQE8JCCEt37xbn7772Pnn7qXw06nJWM2GeQfghKUjEBUlC8gGcV11tCMvbLL8WZ1AP3eNF559OyZfXTH92CABYIintuvO562rp1qzjyTqygoPfzh3vvtc+nI5nq93RENopRvrD/0IMP0uefJf/QWEPjFM+9CoqSmAAvhpDJ99x1F02cMEGcSV1wrxg/L9rmbchLZUzVK1JQ4g3jpCt4QPj4o4+JI3+QgoIJF7+58y5xNj3JVL+nK6jr4KNRo+jjUR/Z+6lMotlrMs67KVshK3g6jjfFe28EhRgVM/bPMGUs3nsDzzz9ND3yj3+KIz7dunWz50n369ef9u+7vz2lDfO85Ywd9CgwE2zLlq20csUK+12VObNn05w5c1y3PvES2YRJE5WnpGIKbmyewCEIYPIeMDX47jvutPeT8fyLL9BxJ5wgjupBkEUgiSWeTz7+6CPH308ECpPT38iWV6wNFLzolnJNdY3dq8DDbDxQ9/KeyxtvvUm9+/SxW1GYecIB+RE7hRPpQs9zhVVGvIKXMTt17kStW7exy2HjJv+bTg6/wzbyqqy0rP5TvXW1VFZSau/jRdIdli/dls3Z386zf6KxgkAW6xP5kuOZp52eNlODc6x6Nm3mDHFUj5xVmgxMDT7y8CPEUWIwNfimW28RR/V1h/OSI0B+x065X7N6NZ014gxx5B2UobZt21L7Dh3sWNe0WVP7PnEeG+4BZayqsop2lO+wZ0NiBuKWLVuSvg5Q2KIFzZ43196P995IvLKFsh6vU8EWEwAHwJBUZBBPTObNnUsXWhU4+ndVQMYNP+1UOu/882nfnj3tc0iEFBAV8DLTe++8S6//97+0bu1acVad62+4ge68+zfiKDFOYgLgeCkousQEOAmKnLLMAe+zxPvGM64Vax+VPZ7gopCOHzuOXnrxRbsccIH/H3r4Yd/EBFM0n3riCXHEo3Xr1vaHl4YdO4wOPfxw+81jsH37dvtnLPA5iC33hYWFYq/+LXLcI96mR/kpLi7ZtQ8Rxn6ZVdm3by+yAkVFvSBZ4vSf/74mruDsdykmf/zDH6zGVfKXFjFVXvXZ0WFW2gHSJ9OoSmzMiKZRTiN6/Mknd0tHuogJ6sQFeNi+yv3DdsS2QYMH0yGHHmLncf/+/S1/O+eXjCn4t+j8atasWX2sse5nm9W4Xrt6Tf3PNWvsKclYQWST5WeUl9feeN3+m3hiApzKlu9iAmAounA4iQn+fvhJJ9NqZiaPOOMMuv2uO+0KG51hXDEB+HtUzJetgPbKSy8rvVEbzfiJX1G37t3FUXziiQmQrYlx48ZpExMQ25rwW0xArN8TiUk077z1lhXc7o9bcOMx4etJdiD3KiY4HnbkUWz/d+nSha6zGhXnXXC+nb+xxBMTgIoNv8O2JFpMVEE6oq8RS2yl5y6/cuftt9NHH44SR/FBWmaJFq18R4FDsjfaY9OhQ0yuuPJKW0ykDdj0KiYTxluNxDvV6nUsbdq0scrWBXTl1VftaqBIELdkPYvFSVCkmHBIJCYg1ieJxIRnOQoENRkk4/Hcs8+yhKSplRnPv/QS/fFPD9oZg0Qgc7gZ5MSVV19tL0OBt645YEmKeA5VBY7A5kc6EoH8QhBJ5BOvwO9ufHLBRRfRZ6O/iDsUGo+PRyUPciq8NXIkW0iwrtuXE8bThb+4iBWcJbKiu/lbDib8LtFZhlG2dKdD+sOvdGCI/b7f/U4cqYMgfdkVl9Pk6dPozt/ctYeQJAPpQPlCOnTXd1WfeMpRGeydDOEZxvPPPCuOktOyZUt678MPrK7eIHGmHtjA9f1wPtY1euGVl6ldu3biTHKmT5tOP//8szhyD5xvAhMV0q2gIP9j119Kxg/f/yD2vPHNzG/EnhpXXHUVPfn0v+K2wlQxISi4vilBceN3DrL86rbhVzqmT51mCwoHNJTRsP3DH/9oi4pbTAqKig3PuRlPUDDPOtFwSTToLr/zwfv2Q00n/BQUrMz6+L+eYgWJl154Qex5w2sPRxVTgoLrc230HzCADj9CbUgCjB83zva/V6ZPmyb2ktO7d2/6/X33iiPvZJKgqAYWL5iyAbzEFOQ59xlcfkEB/XfkG/bii35gSlDixfloQmVlZY5NZhRKTuGHESke+HnM0COVhxU+HzOaeuyzjziKD2xgfI8TlPE3TsIx6oMP6Xf33COOkjNpymR7FkQ8VMaPx44dS7fccKM4SsyTluAdc+yx4qgetGI4hR8FjfuMgut33A/8zCnI27ZupWOPPkYcJWf8pIn2zBa3fp87Zy798qKL7H0Vps2cudvsrERwnhsgr9CK5TYqkA7V/MXv4focv//+t7+lzz75VBzFB9de8PMie9+N392ULcQSlONEbNywgU46fvfni/H49TXX0B2/+d/UcFUbscDveLB9wrHHiTPJQV4989xzdPhQtcYU1+8I+FIkVeHGFBCvJxZGoXPaABKjuslE4CeWV1YVEnxzpJfVEnS6ZuwGh+P6yDSne3ba8PtO1zr3/POoZauW4i6SM2XyZMfryw1OcbITvXEqklMa8fdO1423yUoSe51EGwql07XibbJgOV0r3taqdWvWsxO8rc71O35X3uOY0V+IKyUnvyCfcnJzHK/ptEXnRbIN/pMNLqdrxds4fkc55PqdI27SDmygrDhdL96Ge4q+12QbfI57w0+n68kN/64KAme0DRlTpACrbPh9/O3UqVPFVdU47vjj7VccnK7ptKnEFLm58Tu22PxItiWq797HjaLABVHwvxwzRpxJDG4uepqjCggSKMRcNY0Ff/9///iHOErO6/+tn0qXTiCfUPBR0HQiKxeHG266Sewlp6hom+13+MyN3/G3qrw/ahRL9N3gJr+4mPA76ruJdMDnKMu6gJAgCHP9jvW3VMH933jLzUbqYkP53VcxAZjHjBcHVTjp5JPFHg8pKF4LGMbuVa+BRQHxolk6koqB5eJLfin2klNTUy8GMrBwBSVSpz6EIWfV6BQU2XoMBEUN1Hf4w4SgqJYtTKldsVz95Ve8O9K1a1c7LSYERbdPnPzuu5hAreGUZKBwPPjnh8QRHy8tVQmGWlTHL8HMmbt/vCedSOfAsilqdWkpKJzAUlOrNgyC66Jcyp6MTkEBgaCog3To9gcERTWmTPqKt7r1Nddda/9EbDQhKCZ8EmvDdzGZN7d+qYdkoAXoNbF+CMqtt/3vq2vJWL9undhLT1IpsKi86CjZsHGj2KtHBhZVQcFKCCpEXw9ly83QBxcTQTKTBMWEDZSDZDEFq4yrAv/27ddPHP1PUHT7HT4x6XffxQQfOlLh+htvEHvekM7ntFSjwdo3quBN13THVGBJZoMTFIocxADpUK2M8aacxyIFRMId+nADrg87un1iyu+6g72JAIlykCymTJs6Rewl59BDD92jrMLv2DKlIQEbYT8NTZ0yZddslWScfMopYs87UuXdCErHjh2VZxZ9/913uwWbdMVEAUtmg+OpeDMDYUMleGWF1SssylI0CPQoV4GgqGFCUEykI1FMwb9Nn777opSJuO3OO8Te7sjGim5Bwf2aKFthPx2j+sU6tBTlZyP9Aulw4xQUli5du4ijxMDxZaWlWgOLRLcNExXShA2V4BVi5KXTC6qojCgnbhorqiCwyACmE1M+yYSyJWNKrN+x5mCd5StVmidYjw1+x6a7sWJCUOwUyEzzyupVauOI3MUaVXFbwM46+2yxl5wlS5bYhUt3sDfRYvHL74mAjYYe+giH1UXgpRdetO85FlRG+FynoMDnmdRSzRQbsYKybOlSsacGVt1IBHwOdPrdhKDsioh+tIpWrky+3DXo0q2r2PMfNwUML06qsnzZcjuvdAuKycCi20ZDt1T79Nlf7Knx7L//LfZ2B3kFn+v0u4mhDxOBBchArJOGEJT5P6p/IwYrEqusfJwJft+tVngNLPj+ggpnnHmm1haeLGCqNjhLYmAZeIC80i0oJgoY8Op3FWIrpA7i2Rhx5hksu/95+RV69+23xdHuZIrfTQmKCRvwu25gAz6H72O/k5OIDh3VJ/iku99DO3fu3OOJMozhtXlOovD7hwwabN9sMkaPG2t/PREPVjk24ExOJuD3EfyT/c3y5cvprNNHiKPE3HzrrXTDTf9bXws28AKTLGiJGD9+PN1xy63iKDHPPPcsDTuuft0fXBcTG1DYYEcVpJvz+6gw6EVwfILf5RZ++4G6VU4GDTxQnEkMVnmeOGWyOEqO9En0fQ099LBdDQFVjj/hBLrjrjvt1Y5jwbURVLiVkruWl5x8wBFDDCuq/j5+76477qBPP/5EnIkPfvfbH+tXceb6HXEBZZhTHlVtYG2uYUcdLY4Sc+VVV9Gtd9wujvgxBffzt7/81f4+kgpXX3ONFTNuYfsdH05Dfuv0O2I2Yj3HJ4liShg3ELthdhPeA0BgUd3wmVwVIQH42BHsoPsnA5jKhmAae6+JNjge3UxkmNP15MbJTPx+rA35DCj2urEbpwWF60obcCDyCj+drhtvi76Gyga/o9A7XSvehkLpdK1EG+zgbzk4XSfehnTj403RZeuUU08VV1IHKxafdspw+vWVV9KoDz+0J19IGygzKFso89KGyhZ9n8k2mQ7YcrpWvI3jd5Qp/L4q0gbuyel68TaUK25MQd46XSt244gBYki0DcQGp2vG25DuSsV1B8HQI4fa5dDpWvE2+AMxBXUr+l6TbcgHp+s5bTKmYN/pWvG2RH6PG0WlI1WZM2u22EsOvgQnQcapipAbpFInqjCcF+jWr9/zxUVcW1fXUQInyoKvC+QVfOE1HfgG/NIlS+ibmTPpi8+/oJFvvEGP/OOf9ofGLr/0V3T+OefSCccdL35bD0gLNuQbOGbYMPunG6ZMnkK/u/seOtjqef/iggvomaefplnffGPP6kGgMOF3nTZMwY0pqcrKVWrPhgH3o1cSE35H/fAzpiRskkOJVA3h05kqIHBHB3ap2jqRY5EysMSSnUBoYtmyebPY2xPdgQXAJ5wusxuc0oFhI3xH+qeFC+1vg3w5eowtEo898gjdeP0N9IvzL6Chhx1OvXvuR4cOHkInn3AiXXzhRXTzDTfQ/ffeZwfgt0a+aa++PP/HH6m0pERcWR/wO4DfDz/icKXPHCRj1jezbGH8xQUX2sN0l11yKT391FP09aRJtGL5cts/OjBRtkzAiSmpyro1a8VecmRj1i2mYoofPkk6vqNqaEd5udhLjFPGmMgwGVicnMvpmcglmONhIi24Bx02tmzZYr+YiVWfH3/0UbrzttvpnDPOtJ834Ps0I4afSpf84mJLIG60v4HxqBVU8bmBMV98QbNmzbLHrmut9KcS8Lv0+S23qj2vUgVphTC+8NzzdMett9F5Z59j59VVl19BTzz6GI37ciz9+MMPdk/Nj943yla6B2KQ7oKiujwP4LzjFI90EZSQVcgdSzm68NgkMASD8bjJap3OmD5dHMUHL/C8P+pDex+ZhAdNkmQ28O8q0+yiQTCJfvCKXpHsqUgQnC8673xxlJiDDzmY3nxnz0/PFhcX77qmHF5BFzKaCRMm0N133CmOEvP8iy/QcSfs/sEfpAN5JkEBiz6OBWP6iQohehs/L1pE48eNp48/+ojWrVVvcZkED+CnzlR/4xgg76Nn3ci8+uufH6b333tPnDUHPkuNKegnnXIy7WP1kLp1767ciEE6ostSMr9jGDnRsG4sd95+O330YfJv7aNcz5o3197HsxxuDxkP4KNXM0hW35E/KvUdoyJHHq62YOvlV1xBN916iziqz0vUEw49u/cQe8n55IvP7VU2mjdvLs6oU2L13mUjGCTzOz4HHG/0JR6IAdE+SOYTPMvB7zihLCYgkaGrr7iSvp2ntshjOqMiJsBJUPwWE5CogMUTk6VLl9J/Xn6Z3n37nYSFM1XwQ0yAzKsrL7vc7oE1NCeedBKdf+GF1K9fX2rXvr04uyexYgIS+T1dxAQkiimpKCa41/336yWOkvPFl2OorVV+/RATkMjvfogJSOSTRGLCsgwD8S7EmeGQzrRvrzZvHMKCgsCp1G5AwXISjFhwP6tWrqQzTx9BJx9/Ar35xsi0EBI/kXn18qv/oVNPO80Ojg3J2C+/pGuuusp+1nTCsGPtqeNolKig6vdUJ1FMyQTCPtd/NCp0xxT4xE3ZYg/oZbrzk6G6jhdAAMfGbS1wSRZY0MNEj+i4Y4bZY/x7MzKv/vTwn+n1t950PdvGb1asWEHXXnU1DR54IN19513286tkIC26A4sJ9vaYwiHVGqnRuIpye7PzGzXide1lN7WhBAUPxQf2608fflj/nCqgPq9Qfnv37k1jv5pAf/nb39jj5jr54P336bAhB9Nll15K5Tt2iLPOmAgsJjAVUxq6N+oHqSooriNcrPMrKveOYa6cXP60XJOCEl3A8GY/hlBix9t1g3TiPrChjGBsvc/++9NpI06nu3/3W3rh5Zfoo88+Fb/dMESXXzwUnzx9Gn0zdw4deNBBvg9NuGXq5Cl0gNUQmDBuvDizJ6YCiwngE25rmAvyS7cNE0i/N/SoRzSe7iS6Qubn+bukfKritvUkBUU3ckx13bp1dPopw8VZPeDB+CmnDqdrrr+Onnn+Ofp09Be04OdF9jZ/0U+79rF9+sXn9MRTT9E1115LQ488ktpbf9vQxAYvzLh678MPaIF172PGj/P1mztewANyTNOOh0lB0R2IZfBCmnQhbZjopei0IfMoVQTF813E9lAyHdUPaTlhSlDg/Mt+eYmnHglm65x97jn01L+fprETxtNXk7+mydOm0rRvZtKM2bPsWT0IuI889hjdfc899sykPn362L0QFDxsCG6pPqzgFLxwvO+++9LTzz5Di5Ysttejeuvdd+jsc85hT033i0kTJ9JfHvqzONqTVGypugU2EFN0lh3YMCG+um3ImGJ61MOJUEVFhS9NgAvOOZcWLFggjjKXp55+mo49vn4BRi7jxo2j2266WRwl5l9WEJcLPXJ5+8236KEHHxRH6uC5wf0PPmD3HDC9VKWAYvomHvBzKz5e+BvYf4A4Skz79u1p3ES1D6+5BQESFTOZ4OPf8W4UprhiNYSJX020vzBqalr8m5aoDRgQP9/gB1R6VH5Vfnv33coLPf6wsL6Ou/U7BwgKGqvJwHPB44cdK44Sc9XVV9Ptd/1vej5sIK9Ue0L4vQH79xVHyfnSaoh16dJll9jrAnUVG8fvbkBjEVO8nfweKioqcsxFtMA5rfBzzzqbvvv2W3GUmOtuqP/+OxLPmauOlrbMLFXnI9GqL4cBXBcvMeLvnJyPcX+nj91gHnmyijVmzBi68drrxFFiHnvicTrqmGPEUT3x3huJBvPGhxx4kFIljOYPf7zfXgyxsLCQlV8IqtF+UQE+z7U2LL2iAobT0AtSCfYSBNToNeCSgTQg7+BDTo8O+QVwX5jWi8UgV61aTWNGj7ZXBsDb736COjn3++8S1hu8n4D0q5aBP9x7L33x2efiKD7Im8XLl9n7EFSkmeN31fdGJAhaSAP8kai+b9q4kU49WW1I8trrrqPf/PYecVTf4pbvvqj6HfVLFax23alTJ7tswCecssV9b4Trd5DovREn8K4byoGTDd/EBGsVYfE7FabP+sZOADa54q4KSAAqPDJMVenhDDhFFVwTTkGGwY5qZUkVMcGLiL+753+VRYXX3xxpPyAHqOxcMUGlx32p5pUbMflszGjbRrLAIoHvuGKClwNRXjiCIsUkHtuLimiDFexmTp9B77z1Fi1atEj8i3v+89prdOTR8T/oJl9yVG3ZuxUTuayPqt/diAnKF3yJehnP717FBAESNoCK30858aSEa/RFg+Hhzp0722KC/EP5Ui1bbsQE+cTxCVdM5EuOTmXLt4E2jvCoJjQecIZ0jC6kWMlCli48+sgjYk+NF15+eZeQeAE+TSZ0XoENGex1IYOWX2WrsEUL+1nSZVdcbgsihj2efPpfdNjhh4nf4HNn1Pc4EiErvU5M+B31XXc9lAFexe9t2rQWewpECaCpmGLCJ05ly7dozOlhoMXhFTgfjtcpKDKwpIugLPrpJ9q8aZM4Ss6lv/oVHXiQ2geqVDAVWEwIiq7GCmaMHTF0KP3rmWdo1Ccf0/kXXCD+RZ2tW7bSsmX1PYRkZIqgmCpbKn5v1y7+0jex1NXt3pvKZEHxrbZwhhTkGKVXkGEmAoufLVWdzJ6t/k0ZcMllv/I970xVetjQ6XcZWHRW+s5dutDv7rvXnjHHZcnixWIvOYGgqKMiKFi4UZVly5aKvf+BeGKikWpaUHyLkPvu11PsJWdH1Cq+XkGGwSm6BSVZAUsFFv2kPh5/wMCB1KpVK3HkL6YKsYnAAnRWepQt9FT++dij4owas2fNEntqZJKg6E4H/I66Hq++N26iPgozdsyXYm93ZCNVt6DIhpdOZF0M+2VoyJAhYi85c+fMEXv+IAuxiZZqKgvKuLFjxV5y7rrnbrGnh0wTFJ1+R1A59rjj6OBDDhFnkoOJFlwyRVBMpQM+d4opnCWVpkyZLPb2xISg4PomBMXOL7+cj4e4qpky8Sv/3xlAATOh8qYExY2NEsUVZwFmigQtVTXgd/hDt6D8+tprxFFyMKvGDSbyy4TfG1JQWrVqKfaSU7StSOw5k0mCYtcOvwpYbp7alNIN6zeIPX8xUYiloDi1WPwEBYCblmRfgYymVcuW9u8HgUUNGVh0Ckr/BC8jxiKDEBf8TdBDUQf1HYE+ur5zZj/i+XDsd3Vikb7U3VjRLSi77t4Px7RsqTYGX+7TA3gn/BLGRJhqqaKQqTp/29at9u+r0ignx64g8LvuSp9pgqKrIYH3bzhlyssLkZkkKCbKb3TPoWvXbmJPDbwHkwzUXRMxRaeg7HbnXh2DZQNUKNq2zbalCxMVxYSgoIBJO8moiPkqZjKiA6LuFgvIJEGJban6yYADDhB7yfH6dj03LQhGXEz4HTZ0AxuybOXl57HStFXxm/GwAV+YEBQdw2p7rM0FY0iQm0Lw8J8eojdHjhRHiXnpP6/QoMGDtVZ+ZBje1OW80c0FjkdXFq3KZJXS7dpcuC6GpJCeeAXth++/t1chUOW7+T/uVqBkoICA6ShoADZw/0hL2EqT6tpceAN+/KSJ4ig5sIF1oxItOeIV2EDZ4rysq8J9v/s9jVL89sz7H42yv8nilQf/+AC9+/bb4igxyZZyccJLTFHBy9pcXGRMue3mW2jy11+Ls4kZPGQIvfr6f8VRcpBXsvwmiyluwXXR+MJPv+q74zfgEVDwYiHn5UJUKk5A69q1K33+5Rg701SB8HBejgQyHapDQAgSnOVXAJwCG8laSF6+AY9rIwjHey6ywapQnCXnFy1dskchQh7BH/FsOMFdfgVAfPHRp0OHHCzOJMbNN+C5fkdecN6VAsgn2EBLT5Vky6/cc9dv6P333hNHicGij/vtt+eSNEgHJ0A8++9n6J9//7s4Ssy/nvk3HXb44exvwCPMoGwhv1RRXX7F5DfgAfz+3DPP0hOPPSbOJAa++PGnhayGs2pMiYa7/ArKLWxw6nui5VccLcsb4rYiMLVRde2dzVu22Hb8UsV4yIRzMpkLbCBo6Wh1SXBt2IjnyGxmPjoFWeQRNp3pAPC5bhu4Plpdulp2AMEU+ehnGV63bq3YS45fX4fct+e+Yi85Y74YLfZ4wA8mypYJUAfbd1B/Cx5Bm/u5bBMxBeUWIh8vpnCJG2HhfDfd0p4OLSUnKqyu4qSvJmobv4tGBk6dggKn6OrGRxPvuUDrNm3EnhpYeM4JmQ6/Clg8OC0ut6Bs6RYU5JefgjJ92nSxlxy/XjodOHCg2EvOlMmTxZ47TNQRExx+hFpPSPLqf/4j9niYiil+2EgaXbmJGTR4kNhLzh231y9Yh0qvO8NQ4WXrSCemnO8U7DkCsNXqGSYino10A36Hz9NBUDgCi/T49UyoRUv19yY4w1TxyARBQa8Qi3iq8slHHyvN6nIC+aW7we2HT5QiK8fQ1b/+tdhLDnon06dNs/dhQ3fwMtFSBSZ6W07BnvPsYtXKlWIvPpkiKCb8AUHB5sUOPrKlip+NIs61ML4ue/peyARBufa6a8WeGq+89LLY42Oiwe3VJ8qlSNVQh44daZ999hFHybnlxpt2PYT3q7uVCDglXVqqyYjNL6y3pcotN91s32cyMkVQUH51+wM+9+L3B/5wv9hLzrnnnyf2vIP7TTYxQIL6g80P0l1Q+vXvL/bUePGFF5Q/IOiEifzyYoPVvFE1dPJw9VlFCGhnnj7CvjYwkWGypapbULCZHFY77IjD7Z8qQCRSaRnzRGCyhorwJcNE6076nVu2xo8bR6tXrxZHycFkFz/Tcshhh4q9xCBtS5csEUfeMVHfdYE34Tkf+0LeXX3FlUnfiE+EjF06cesTdqSDoWSB5YabbmQNuWD8/vJLLqWa6v8Jiu7gBRtwih9BKh5yOMCU8/GtdA5/euABsZccvwWlljFUUmdVoJuur//Us1dMlC34HWKi2pDAwqfc9PXu02eX3/2gsLlazwRce7X6ULYKfqbDJPBv9FcbVSgqKqLhJ51MG10+P0G8QvnSnV9ufOKq2ZwssECtuR/9+emnn+i8c86hTRvrP+5kojVsKrCgAJjooWDl2WxGeqZOnsIap4dPvDz0xcPbl1962e6JHjP0SHFWDXxT/fCDD7Hfw0BZ8YKJsiUbEsn8PvKNN+iyS39l35MqLVq02PVNDb9aqn0ZQzZYZHLNmjXiyB9MCYrf9fCYYcPEnjp4L+ZUS1BUXxSNRQqKiZjC8Ynru0lWIW+85WZ24FljdfPPGjGCHn7oIfu7zKYERXchloFF57AawPWHn6o+xAjQ7Z7D+KgWHsBy8gvfpX7x+Rfo3LPOpiEHDaK/WL5d/PPPrOAp2bx5s/1CH17OHNC3Hx19xFA67eRTrGufZW+JWLx4MX3/3Xe7VlY2JSjxfI63p0cMP5Xuv/c+eyIKhz/+6UGx97/A4lVQuOUG974lyYxALqbqop9+b968Od14803iSB1Mzf/dPb+l0045hT756CNxVh0ZU1JJUBzfgAd4KK7ydjocg4qJN+Bjl5b459//Qc/++9/iiAfesMUyBCPOPIOGHXusnWmwxX0DHpmOgJYMmQ7YQQauWL6c1q9bT6tWraRlS5fRQ395OOHSGSgccbJyFxMnTqS7blP7fnfsG/AAAot7S8TMGTPoxuuuF0dqoLDccOON9pvB6D2oTP/E3+BeYt+Ax3pRX0+cRJOstP60cCGtWLEi6T37xZIVy8VefYs9emz6kX/8g958o36pn6ysbCosbE75VhnDg+fGjQus1n5L6tChA3Xv0Z1atGplTyLBexxtkry/s337drEXH+QVluDAB62+Gj/B/sl5PhINyunX06buERAhWthQ3rlvwAPcH3qMyxWfowHcw7U3XE/XXned0rMDlKt4X1ndXlRETZs1s+9bli2db8DL+g5b3Jc/Uc+j39PC/vHH8Hso0aCcHXjQQXTSKSfTMKu3g+naiFtSNOIhxQS/J9+ARz6j57h54ybaVrSNtliNsE2bNtHqVaupvKLcarxU0Otv1tcF9DJVGnbSJ4negPcsJgAXRyJiHY+/P334cCswrxBn3IEeTvfu3alT587UuYu1WT+bW0HAnoES1fIrtip2dHLwLQEcY3yyrq7Wck5p/RIY1n0hw1GBULjRMsQ+MhY/nUAFTvS5ThUx8bKcClARE9zDGaeeRuutCsYF6Tvx5JPpqKOPspdDRwFyAmnF2O+6teus3uQqWrJ4iV14V65caa+T1BD069ePPvrsU3G0p5hgeAwPubkguDW3hKdx4yZ2kEZlwlZgCRDOoRLjy3tWKLf/vaS0xPZBSXGJVZZ22N9rR/lDwMM9eeW5l16kwYMHi6PdkYEF9+dGTB75xz/p1VdeEWfUKbDsDbDKS+8+vWnfnj3teok8gEBs315c/7N4+67j6Don6yB+/71RH9r1HKDsIT1oVCbD7XIqiFtSfDngXqPFBHw5Zgz93upp+AEaBa1bt6bWbVpbDZrW1Kx5M/uZVnZOIyrIL7Dzbtu2bbbYIO/Kykqtsl5mL1GEGKHSGPxpyWI7j1XFBOD3IfBxxcQKro4REAWfU/ghJE6/j2UELjz/Aqo11DrVxbiJX1GnTp3E0Z6orG8zfvx4uuOWW8VRYp557tldCz1KICTJWioAvZNrrrpaHLkDBQdj8zJAARQ8NBBM9TQ4XHDRhfTgQw+Jo/oKH11JLvnFxfbacenMiDPOsHvI8YbOAPyFHjTXR6i769aupZOO370BY5LX33rTFiUJ0gE/YksEGjDDjjpaHCXmyquuolvv+N/oABqqyDOVehVNbH1H/mESxbSpU8WZ1Gb2vLlWI6iJckwBKHcQ93jiE7JamI6echq2SoQMMk6FGGOCWJk0nYm3qJ4EY6eJKjkYY7Vebrz2OnGUmMeeeJyOOuYYcVQPuuPxeguxXH/NtTT2S+fvT2ci9/3xfjrr7LPFUX2PIrrFOfSwwxus1+QHaLF/8sXnSsM+aJ0iAHMag3Lhxhus8olWdkPw3ocf2EM9ErSwEbiQjkSCgjfLTz35FHGUGAzJRc/AQrySPSNOUEV9j6XM6gkfe/Qxdq891Rkzfpw9jJto2MoJ9CSRT05x3tenNzDgFOxGnHmm/UA+nalR7AqmCg//9a/2GPTeAoa5EuH3w2KTdLOE5NPRXygJCUBgjFcXk3Fz1Iq6pnESDKQDPYdkDTUvQKxw/eheuBuaWI0XfCpB9QXQhkRlKMyJRGXLVzEB8QxdceWV9Lv77mWP5aYKeGiVTrRs1ZLefPstT1N5TdBZ8YNqyWjfoYPYcyZRyzaVwcuJn48ZzRolAAiObgRl/7596bY77hBHZokX4BDsdccNvwQFD8HxuYQ+ffqIM6mJyrB8ItBjjO3R+C4mIF4hPve88+yPYmHWTLpRXZNePROAQP3We+8qt2hNgcBwyKGH0lP/fpomTv6aLv7lLykr21uwSBYE0k1M0AhAb/6Z559z1cOQuBEUTHU9OmaI1QSJlml3kw4ufgkKHlKjJ3ne+ed7Lte6qPYoJsinWEHRIiYAzncai8MsIXwh7syzzmKN1TU0bruFDQ0+Qobx0UTPe0yACopx/0t+dSlNmjqFRlq9puGnnmr/258e/jN9OW6c/dIl98NkkqxkASBNxAQignyY8PUkuzfvB9xAjEDxwssv0SnD1Z5D+MV3330n9pwxKSjYvPK3f/ydPhg1igYeeKBngfIbpNMPogVFawqdukIAFeYPD/yRpsyYTsefeILrAGICtKLxsA2tjVQrEKrg4erId96ma6+/3p5SbYo8q0eEDy9BQD6zWmqY+okhFCd/47kAAhg+C/vO++/RDTfdZL9dPOCAAdSrVy9biBJt4STDIHinJJVp07YtnWKJK74++o9HH2EPayWDG4hR7v/1zDP02JNPUFvr3kwwZ1byl2dNCQrquh+CgsUgMbHguRdfoAMPOjBlhp25s9cSIeN8qKysLIKDWNzM5or3XgoMOdnAecwmAO+8/Q7999VX7emJsXO4dQLnItDk5+fZc7ixv1+v/exF3PpbBQEt+ixReFHBMFzi5IhUm80F4r2X8sLzz9OnH31sf+rXrxYKKh8eQBZa+bB/v750+ogRdORRRzleH3mu8v6ABOO78d7/QX44pRG+in1/ANfAuzDLliylBfPn09KlS2ndunXW+R1UVVlF5eL9B6/jySogDzCbplfv3nS51QMZeOBAu/w45RfSgfSogvdr4vk1Xn7J2VxO4FovvfACvfHf12mtVT/9BnEADQysLRf9rhBGAzDTyonodHidzYV64gRsIO2xQ6Twk9Nsrnjg72VMQ9l6a+Sb9Nmnn9DmTZuVXqh2C/IV7wA1tnyLn3i1AbPlDhx0EO3fp4+99BJ3Nlei91LsqcFOwd5PMQFONnBOikk0eAHus08/pXFfjrUC3nq7osMJcLxTRQAIZnJDIQjhp1UBMWaZm5tnO79z5072lyDx8uP++/e1WsPd9gg4EIpEDo4nKCpi8s0339Djjzxq78dLh+TW22/bY4lrv8REgjx98/U3bJHbtnXrrqmYTn8Du0g7CmAjax89NXy6FPeIh8RYrcApGOFcbHD2U0xAdGCROIlJIhA0ol9yXLJkCa1bs9ZeWRlvq0N00NCpqbHyp7qGqi17eHcKf+cUcGQZRFpRDpFfbdu1s/MJzyP69d9z9plsDeN60fgpJrg+rhWbX4nEJBr44ZWXXqIP3//AtoM3qqt3OpcZIOsj6jqun2vFlCZWnR988ME0aNAgOuLIoXGfoSYSEyD9jqm4eCkVyPTF44wzz6SLLv6FOEosJgDXQl2P9q8XMYkFK0Z8NX68/X4KXv5FWZexDnad8jW2LiJv0Qju0qUL9d6/D/Xt25ewEGj06g24Z/gitlz4LibYia2QfosJiBWUeGISD/wtEpOI2HQgAznDaMnEBMCRsYKiIibRoHDFBqBonAKL32ICYn2Ch/UIfKqgsid6noQ0IohE2/BbTECs3+EjL2LihFNg4U4DTbb8CvwOosuWn2ICUK5wvej8UhUTCfwR3UiAf+23sq1yjTLRzuploE5ExxCUK85kkGRiAmL9jmPO8ij420RiAmJtIP/8EhOJU0xB3JLlQYVky684CYqfYrLrTpFZnEDlBtwE58bdYCIdcAacwnE0Fxm0OEHEDbp9ggKMoJNJfkeadAG/y0qvC5QrpMXP/IJ/21k9r/169bI/0oZ9CEkm+N1U2TLhd5QvXTFltzvPJEExYcNEYEEB0FnAgAlByaSGBGzo9LsMLDobEjKwZEp9150OU2XLhKBg01G27AfwYn8XSBAMcrq9yAhsqiDD4CDOUBoKP/5GFdhAYeZ0rZFu/I0qsIGWN2xwAkz0EEEycF3kLSolpxAgr5BnHGCLU/k5fkfeokLivjhDaVwbyCMTfscwDGeYFnD8LusI6iH2VUE6kB4VZF3H9TnB0o1PUBbTPaYgHfA7Z5gWcP0OHyIdnJjC8TtsIG/hc79iiuOqwTCC5x+cyoWEc5wIsxgP5WQyghy38mJsl5vJ3KnKMq84BZ/7jAX5hI1T8LnPWJAGVBSODe4zFhRE+J1TtrjPWGTZ4vgdFYrzjAWgbCWqXE5wn7G4KVvcZyy4PuxwbHCfsSCPZH6pwn3GAl9LG6p+R/3gPGMBsmyp+h31nPOMBcAfqO+cssV9xoI0cOt7omcsjpZRELmKxQUZjMKo0waAwCGDOYGbixRRnWlBXiENOm2gkOj2O3yh2+/IJ/gENnT6XQocpwJzQTqQBp02ZI+X0/DggvuXdnRhyu8mfAIbuL7O/JL+8Csdca8CZcemMzG4PpRXpw0AG8gwnQVMtiB05xc2nZXepN91VkbYQEsb6TDhd91pATptAKRFZ9kCJsqW9LtOYEO3oMAfSI9uG8CP/Ep4lzIxJgKLCRtwis7AggKmO7+QDt2VxZTfsekWxkwRFGlDt9+x6fSJtKG7bMHvuoXRlKAAE373aiNpLkhDuiu9KRu6BQU2YEtnAZNp0V3AYMdEsDdhQ2deAeQX0B1YTPhdtw1ZftO9bAEpKLpjigmfYHNvg+j/AZvrnIx73SvgAAAAAElFTkSuQmCC;movable=1;resizable=1;rotatable=1;deletable=1;editable=1;locked=0;connectable=1;" vertex="1" parent="8xl_JkXHUE990gDZxPh6-21">
          <mxGeometry x="21.280000000000086" y="30" width="35.05" height="40" as="geometry" />
        </mxCell>
        <mxCell id="8xl_JkXHUE990gDZxPh6-23" value="Documental DataBase" style="text;html=1;align=center;verticalAlign=middle;whiteSpace=wrap;rounded=0;" vertex="1" parent="1">
          <mxGeometry x="543.81" y="720" width="60" height="30" as="geometry" />
        </mxCell>
        <mxCell id="8xl_JkXHUE990gDZxPh6-24" value="GET Permission/userId" style="text;html=1;align=center;verticalAlign=middle;whiteSpace=wrap;rounded=0;" vertex="1" parent="1">
          <mxGeometry x="270" y="600" width="60" height="30" as="geometry" />
        </mxCell>
        <mxCell id="8xl_JkXHUE990gDZxPh6-25" value="POST&lt;br&gt;permission/request&lt;br&gt;&lt;br&gt;PUT&lt;br&gt;permission&lt;div&gt;&lt;br/&gt;&lt;/div&gt;" style="text;html=1;align=center;verticalAlign=middle;whiteSpace=wrap;rounded=0;" vertex="1" parent="1">
          <mxGeometry x="265" y="300" width="60" height="30" as="geometry" />
        </mxCell>
        <mxCell id="8xl_JkXHUE990gDZxPh6-27" style="rounded=0;orthogonalLoop=1;jettySize=auto;html=1;" edge="1" parent="1" source="8xl_JkXHUE990gDZxPh6-26" target="8xl_JkXHUE990gDZxPh6-5">
          <mxGeometry relative="1" as="geometry" />
        </mxCell>
        <mxCell id="8xl_JkXHUE990gDZxPh6-28" style="rounded=0;orthogonalLoop=1;jettySize=auto;html=1;" edge="1" parent="1" source="8xl_JkXHUE990gDZxPh6-26" target="8xl_JkXHUE990gDZxPh6-6">
          <mxGeometry relative="1" as="geometry" />
        </mxCell>
        <mxCell id="8xl_JkXHUE990gDZxPh6-26" value="user" style="html=1;outlineConnect=0;whiteSpace=wrap;fillColor=#ffff99;verticalLabelPosition=bottom;verticalAlign=top;align=center;shape=mxgraph.archimate3.actor;" vertex="1" parent="1">
          <mxGeometry x="55" y="458.5" width="50" height="81.5" as="geometry" />
        </mxCell>
        <mxCell id="8xl_JkXHUE990gDZxPh6-29" value="Components&lt;br&gt;&lt;br&gt;&lt;b&gt;Challenge N5&lt;/b&gt;" style="html=1;align=center;verticalAlign=middle;dashed=0;whiteSpace=wrap;" vertex="1" parent="1">
          <mxGeometry x="330" y="110" width="160" height="70" as="geometry" />
        </mxCell>
      </root>
    </mxGraphModel>
  </diagram>
</mxfile>
